<svg width="400" height="300" viewBox="0 0 400 300" fill="none" xmlns="http://www.w3.org/2000/svg">
<rect width="400" height="300" fill="#E5E5E5"/>
<g id="data_process 1">
<path id="Vector" d="M159.76 150.52L233.87 107.42" stroke="#E0BC94" stroke-width="2" stroke-miterlimit="10"/>
<path id="Vector_2" d="M167.48 75.59V145.71L127.62 168.8" stroke="#E0BC94" stroke-width="2" stroke-miterlimit="10"/>
<path id="Vector_3" d="M391.88 142.23L250.53 59.31L29.85 187.44L171.74 269.53L391.88 142.23Z" fill="#F3DDE2"/>
<path id="Vector_4" opacity="0.32" d="M293.21 180.63C302.61 175.57 311.55 169.47 320.88 164.29L287.88 163.1L253.52 180.62C263.31 185.78 271.51 189.27 293.21 180.63Z" fill="url(#paint0_linear)"/>
<g id="Vector_5">
<path d="M268.84 126.2L309.8 149.7L241.26 189.27" fill="#F3DDE2"/>
<path d="M268.84 126.2L309.8 149.7L241.26 189.27" stroke="#E0BC94" stroke-width="2" stroke-miterlimit="10"/>
</g>
<path id="Vector_6" d="M292.13 91.4C295.71 94.21 300 91.98 303.05 89.55C305.53 87.55 308.05 84.67 310.87 82.62C310.87 83.19 310.79 83.77 310.73 84.31L310.12 89.81L309 99.56C309 99.73 309 100.25 308.91 100.39C304.21 106.47 289.46 104.04 289.46 104.04C288.78 102.28 289.99 100.76 289.46 98.94C288.93 97.12 286.46 91.62 288.81 90.15C289.092 90.0065 289.406 89.9392 289.722 89.955C290.038 89.9708 290.344 90.0691 290.61 90.24C291.147 90.5852 291.655 90.9731 292.13 91.4V91.4Z" fill="#68D5FD"/>
<path id="Vector_7" d="M280.23 152.3C280.23 152.3 281.59 159.86 279.38 160.75C277.17 161.64 268.19 168.65 269.53 171.46C272.61 177.91 291.01 163.88 291.01 163.88L288.73 147.88" fill="#1D3F75"/>
<path id="Vector_8" d="M291.84 123.38C291.84 124.83 293.13 150 293.13 150C293.13 150 282.91 159.43 275.28 158.84L271.51 134.42" fill="#FFF7E1"/>
<path id="Vector_9" d="M309.82 143.78C309.82 143.78 296.24 145.34 288.24 137.08C283.59 132.27 274.81 124.08 274.81 124.08L307.2 121.71" fill="#FFF7E1"/>
<path id="Vector_10" d="M341.54 131.39C341.54 131.39 345.68 128.39 347.23 128.82C348.78 129.25 349.38 146.54 348.31 147.59C347.24 148.64 343.61 152.59 341.54 151.75C339.47 150.91 338.27 147.59 338.27 147.59" fill="#1D3F75"/>
<path id="Vector_11" d="M303.51 120.81L328.16 122.32L323.51 139.65L339.4 127.65C342.49 130.95 341.98 134.47 342.14 138.81C342.333 141.64 342.052 144.482 341.31 147.22C341.22 147.51 341.12 147.8 341.02 148.09C339.54 149.45 337.81 150.65 336.63 151.58C333.77 153.84 331.01 156.19 328.2 158.51C324.2 161.77 320.46 164.9 315.45 166.4C310.44 167.9 301.64 164.15 300.62 158.29C298.79 147.81 302 131.27 303.51 120.81Z" fill="#FFF7E1"/>
<path id="Vector_12" d="M325.71 78.94C326.65 77.29 329.6 75.12 331.31 77.02C331.644 77.4313 331.8 77.9582 331.746 78.4849C331.692 79.0117 331.431 79.4954 331.02 79.83C330.13 80.67 328.69 80.9 327.57 81.24C327.433 81.281 327.288 81.2889 327.147 81.2632C327.006 81.2376 326.873 81.179 326.759 81.0922C326.645 81.0055 326.553 80.8931 326.491 80.7641C326.428 80.6351 326.397 80.4932 326.4 80.35C326.252 80.318 326.114 80.253 325.995 80.1599C325.876 80.0667 325.78 79.9479 325.713 79.8122C325.647 79.6765 325.612 79.5275 325.612 79.3765C325.611 79.2254 325.645 79.0762 325.71 78.94V78.94Z" fill="#FBB5AD"/>
<path id="Vector_13" d="M304.67 110.26L329.93 104C329.93 104 329.14 115 328.16 122.28C323.64 124.28 318.16 124.28 313.33 123.57C309.923 123.175 306.603 122.23 303.5 120.77C302.492 120.248 301.526 119.65 300.61 118.98C301 116.37 304.36 112.93 304.67 110.26Z" fill="#68D5FD"/>
<path id="Vector_14" d="M298.87 115.57C298.87 117.57 299.4 122.44 299.51 124.42C310.15 121.58 333.21 113.88 334.75 98.02C334.983 95.864 334.726 93.6833 334 91.64C332.66 89.48 330.47 87.72 328.69 86.06C325.98 83.53 322.61 80.99 318.87 80.32C314.27 79.5 310.64 82.48 307.34 85.6C306.1 88.47 309.68 91.29 309.21 94.22L302.78 113.54L298.86 115.54" fill="#68D5FD"/>
<path id="Vector_15" d="M318.78 73.57C318.78 73.57 315.98 86.57 320.27 88.19C324.56 89.81 328.91 86.85 329.66 84.4C330.108 82.3683 330.21 80.2755 329.96 78.21C329.96 78.21 326.77 73.62 318.78 73.57Z" fill="#FBB5AD"/>
<path id="Vector_16" d="M318.33 71.26C318.19 68.11 322.6 66.11 324.63 68.78C325.136 68.3406 325.732 68.0179 326.377 67.8348C327.022 67.6516 327.699 67.6124 328.36 67.72C330.23 68.04 330.88 69.36 330.72 71.12C331.258 71.1122 331.79 71.2312 332.273 71.4675C332.756 71.7038 333.176 72.0507 333.5 72.48C333.863 72.9969 334.058 73.6133 334.058 74.245C334.058 74.8767 333.863 75.4931 333.5 76.01C334.161 76.2754 334.711 76.7574 335.062 77.377C335.413 77.9966 335.543 78.717 335.43 79.42C335.369 80.0777 335.138 80.7082 334.76 81.25C334.843 81.4494 334.903 81.6573 334.94 81.87C335.027 82.4522 334.94 83.0471 334.691 83.5806C334.442 84.114 334.042 84.5625 333.54 84.87C332.95 85.2671 332.251 85.473 331.54 85.46C331.308 85.9079 330.954 86.2809 330.518 86.5357C330.083 86.7906 329.584 86.9169 329.08 86.9C328.448 86.8749 327.848 86.6186 327.392 86.1799C326.937 85.7411 326.659 85.1505 326.61 84.52C326.588 84.1806 326.636 83.8404 326.75 83.52C326.159 82.2133 326.05 80.7398 326.44 79.36C326.249 79.298 326.067 79.2106 325.9 79.1C325.394 78.7391 325.039 78.2054 324.9 77.6C324.308 77.8146 323.67 77.8698 323.05 77.76C322.757 77.6978 322.485 77.5598 322.263 77.3597C322.04 77.1597 321.873 76.9046 321.78 76.62C320.967 76.8202 320.113 76.7729 319.327 76.4843C318.542 76.1956 317.86 75.6788 317.37 75C317.064 74.3633 316.993 73.6392 317.168 72.955C317.344 72.2709 317.755 71.6706 318.33 71.26V71.26Z" fill="#D86212"/>
<path id="Vector_17" d="M325.66 82.48C325.74 82.0733 325.901 81.6868 326.132 81.3433C326.364 80.9997 326.663 80.7062 327.01 80.48C327.176 80.3383 327.369 80.2313 327.577 80.1655C327.785 80.0997 328.004 80.0764 328.222 80.0969C328.439 80.1174 328.65 80.1814 328.842 80.285C329.034 80.3886 329.203 80.5297 329.34 80.7C329.55 81.0281 329.652 81.4136 329.633 81.8026C329.613 82.1916 329.472 82.5648 329.23 82.87C328.66 83.62 327.72 83.62 326.91 83.96C326.43 84.16 326.13 83.67 326.24 83.26C326.147 83.2553 326.057 83.2302 325.975 83.1864C325.893 83.1426 325.822 83.0813 325.766 83.0067C325.711 82.9322 325.672 82.8463 325.654 82.7552C325.636 82.6642 325.638 82.5702 325.66 82.48V82.48Z" fill="#FBB5AD"/>
<path id="Vector_18" d="M319.66 79.23C319.72 78.93 320.18 79.06 320.12 79.36L319.72 81.36C319.633 81.6675 319.572 81.982 319.54 82.3C319.54 82.86 319.82 82.97 320.24 83.22C320.285 83.256 320.316 83.307 320.326 83.3637C320.337 83.4205 320.327 83.4791 320.298 83.5289C320.268 83.5787 320.222 83.6164 320.168 83.6349C320.113 83.6535 320.053 83.6517 320 83.63C319.45 83.3 319 83.13 319 82.44C319.154 81.3575 319.374 80.2854 319.66 79.23V79.23Z" fill="#56403D"/>
<path id="Vector_19" d="M318.56 78.67C318.624 78.67 318.685 78.6953 318.73 78.7403C318.775 78.7853 318.8 78.8464 318.8 78.91C318.8 78.9737 318.775 79.0347 318.73 79.0797C318.685 79.1247 318.624 79.15 318.56 79.15C318.496 79.15 318.435 79.1247 318.39 79.0797C318.345 79.0347 318.32 78.9737 318.32 78.91C318.32 78.8464 318.345 78.7853 318.39 78.7403C318.435 78.6953 318.496 78.67 318.56 78.67Z" fill="#56403D"/>
<path id="Vector_20" d="M323.17 80.23C323.234 80.23 323.295 80.2553 323.34 80.3003C323.385 80.3453 323.41 80.4064 323.41 80.47C323.41 80.5337 323.385 80.5947 323.34 80.6397C323.295 80.6847 323.234 80.71 323.17 80.71C323.106 80.71 323.045 80.6847 323 80.6397C322.955 80.5947 322.93 80.5337 322.93 80.47C322.93 80.4064 322.955 80.3453 323 80.3003C323.045 80.2553 323.106 80.23 323.17 80.23Z" fill="#56403D"/>
<path id="Vector_21" d="M320.73 84.58C321.096 84.7378 321.507 84.7568 321.886 84.6335C322.265 84.5102 322.587 84.253 322.79 83.91C322.826 83.8649 322.877 83.8342 322.934 83.8236C322.99 83.8131 323.049 83.8233 323.099 83.8525C323.149 83.8816 323.186 83.9277 323.205 83.9824C323.223 84.037 323.222 84.0965 323.2 84.15C322.932 84.6002 322.507 84.9358 322.007 85.0926C321.507 85.2494 320.967 85.2164 320.49 85C320.21 84.87 320.45 84.46 320.73 84.58Z" fill="#56403D"/>
<path id="Vector_22" d="M301.54 127.57C301.68 126.82 302.82 127.14 302.68 127.89C301.615 133.488 300.857 139.139 300.41 144.82C300.35 145.58 299.16 145.58 299.22 144.82C299.678 139.032 300.452 133.273 301.54 127.57V127.57Z" fill="#1D3F75"/>
<path id="Vector_23" d="M318.66 156.26C320.388 151.099 321.781 145.831 322.83 140.49C322.98 139.74 324.12 140.06 323.97 140.81C322.921 146.151 321.528 151.419 319.8 156.58C319.56 157.29 318.42 157 318.66 156.26Z" fill="#1D3F75"/>
<path id="Vector_24" d="M307.72 122.19C316.218 119.65 323.884 114.89 329.93 108.4C330.32 107.98 330.93 108.61 330.56 109.03C324.411 115.604 316.625 120.425 308 123C307.901 123.01 307.802 122.987 307.718 122.933C307.634 122.88 307.571 122.8 307.539 122.706C307.506 122.612 307.506 122.51 307.539 122.416C307.572 122.323 307.636 122.243 307.72 122.19V122.19Z" fill="#1D3F75"/>
<path id="Vector_25" d="M298.38 115.06C304.288 112.677 309.872 109.559 315 105.78C315.46 105.44 315.9 106.21 315.45 106.55C310.268 110.365 304.628 113.513 298.66 115.92C298.09 116.13 297.86 115.27 298.38 115.06Z" fill="#1D3F75"/>
<path id="Vector_26" d="M303.92 107.18L308 94.7C308.18 94.16 309 94.39 308.86 94.94L304.75 107.42C304.6 108 303.74 107.73 303.92 107.18Z" fill="#1D3F75"/>
<path id="Vector_27" d="M290.67 83.53V129.77L254.86 150.45L225.69 133.11V90.14" fill="#008FAE"/>
<path id="Vector_28" d="M254.86 150.45V104.82L225.69 87.74V133.11L254.86 150.45Z" fill="#00A4AE"/>
<path id="Vector_29" d="M261.18 66.06L290.67 83.53L254.86 104.82L225.69 87.74L261.18 66.06Z" fill="#00BAE2"/>
<path id="Vector_30" d="M286 91.14V100.71L259.17 116.02V106.63L286 91.14Z" fill="#7374B7"/>
<path id="Vector_31" d="M262.452 108.522C262.635 107.917 262.474 107.334 262.092 107.219C261.71 107.103 261.253 107.5 261.07 108.104C260.888 108.709 261.049 109.292 261.431 109.407C261.812 109.523 262.27 109.126 262.452 108.522Z" fill="#F7931E"/>
<path id="Vector_32" d="M264.721 107.172C264.903 106.567 264.742 105.984 264.36 105.869C263.978 105.753 263.521 106.15 263.338 106.754C263.156 107.359 263.317 107.942 263.699 108.058C264.081 108.173 264.538 107.776 264.721 107.172Z" fill="#D9E021"/>
<path id="Vector_33" d="M267.03 107.34L283.62 97.81" stroke="#F2F2F2" stroke-width="0.25" stroke-miterlimit="10"/>
<path id="Vector_34" d="M286.63 104.55V114.12L259.8 129.43V120.04L286.63 104.55Z" fill="#7374B7"/>
<path id="Vector_35" d="M263.129 121.886C263.311 121.281 263.15 120.698 262.768 120.583C262.386 120.467 261.929 120.864 261.746 121.468C261.564 122.073 261.725 122.656 262.107 122.771C262.489 122.887 262.946 122.49 263.129 121.886Z" fill="#F7931E"/>
<path id="Vector_36" d="M265.406 120.539C265.589 119.934 265.428 119.351 265.046 119.236C264.664 119.12 264.207 119.517 264.024 120.121C263.842 120.726 264.003 121.309 264.385 121.425C264.766 121.54 265.224 121.143 265.406 120.539Z" fill="#D9E021"/>
<path id="Vector_37" d="M267.66 120.75L284.25 111.23" stroke="#F2F2F2" stroke-width="0.25" stroke-miterlimit="10"/>
<path id="Vector_38" d="M286.63 117.95V127.52L259.8 142.83V133.44L286.63 117.95Z" fill="#7374B7"/>
<path id="Vector_39" d="M263.183 135.242C263.365 134.637 263.204 134.054 262.822 133.939C262.44 133.823 261.983 134.22 261.8 134.824C261.618 135.429 261.779 136.012 262.161 136.127C262.543 136.243 263 135.846 263.183 135.242Z" fill="#F7931E"/>
<path id="Vector_40" d="M265.46 133.885C265.643 133.28 265.482 132.697 265.1 132.582C264.718 132.466 264.261 132.863 264.078 133.467C263.896 134.072 264.057 134.655 264.439 134.771C264.82 134.886 265.278 134.489 265.46 133.885Z" fill="#D9E021"/>
<path id="Vector_41" d="M267.66 134.15L284.25 124.63" stroke="#F2F2F2" stroke-width="0.25" stroke-miterlimit="10"/>
<path id="Vector_42" d="M225.69 103.62L254.72 120.75L290.67 99.87" stroke="#1B1464" stroke-width="0.25" stroke-miterlimit="10"/>
<path id="Vector_43" d="M225.69 117.02L254.72 134.15L290.67 113.27" stroke="#1B1464" stroke-width="0.25" stroke-miterlimit="10"/>
<path id="Vector_44" d="M291.38 112.76C291.943 112.761 292.494 112.924 292.967 113.228C293.441 113.533 293.816 113.968 294.05 114.48C294.43 115.14 294.69 115.85 295.12 116.48C295.83 117.48 296.4 117.1 297.42 116.62C298.44 116.14 299.5 117.75 298.42 118.27C297.559 118.818 296.584 119.16 295.57 119.27C295.256 119.202 294.958 119.07 294.697 118.883C294.435 118.695 294.215 118.456 294.05 118.18C294.011 118.336 293.929 118.479 293.815 118.592C293.7 118.705 293.556 118.785 293.399 118.822C293.243 118.859 293.079 118.852 292.925 118.803C292.772 118.753 292.635 118.662 292.53 118.54C291.69 117.54 290.48 116.36 290.14 115.06C290.045 114.829 290.003 114.579 290.016 114.33C290.029 114.08 290.097 113.837 290.216 113.617C290.335 113.397 290.501 113.206 290.702 113.058C290.903 112.91 291.135 112.808 291.38 112.76V112.76Z" fill="#FBB5AD"/>
<path id="Vector_45" d="M285.61 120.42C290.017 118.933 294.43 117.463 298.85 116.01C299.12 118.25 299.26 120.5 299.44 122.74C297.555 125.029 295.365 127.048 292.93 128.74C292.769 128.83 292.588 128.876 292.403 128.875C292.219 128.874 292.038 128.825 291.878 128.734C291.718 128.642 291.585 128.511 291.49 128.353C291.396 128.194 291.344 128.014 291.34 127.83C291.384 127.412 291.502 127.006 291.69 126.63C290.789 127.23 289.822 127.726 288.81 128.11C288.589 128.154 288.36 128.127 288.155 128.033C287.95 127.939 287.78 127.783 287.669 127.587C287.559 127.391 287.512 127.165 287.538 126.941C287.563 126.717 287.658 126.507 287.81 126.34L288.69 125.62C287.947 125.748 287.191 125.782 286.44 125.72C285.32 125.62 284.91 123.92 286.16 123.64C286.66 123.53 287.16 123.38 287.63 123.23C286.74 123.117 285.895 122.772 285.18 122.23C284.47 121.66 284.93 120.65 285.61 120.42Z" fill="#FBB5AD"/>
<path id="Vector_46" d="M266.71 198.97V200.34L266.02 201.19" fill="#ADCEE1"/>
<path id="Vector_47" d="M239.15 182.27L265.92 198.86C266.164 199.012 266.363 199.225 266.5 199.478C266.636 199.731 266.705 200.015 266.699 200.302C266.693 200.589 266.612 200.87 266.465 201.117C266.318 201.364 266.11 201.568 265.86 201.71L225.23 224.71C224.664 225.037 224.023 225.208 223.37 225.208C222.717 225.208 222.075 225.037 221.51 224.71L194.87 209C192.93 207.41 193.08 204.41 194.87 204.29L235.26 182.21C235.853 181.866 236.528 181.691 237.213 181.701C237.899 181.712 238.568 181.908 239.15 182.27V182.27Z" fill="#88D3D8"/>
<path id="Vector_48" d="M239.15 181.13L265.92 197.72C266.164 197.872 266.363 198.085 266.5 198.338C266.636 198.591 266.705 198.875 266.699 199.162C266.693 199.449 266.612 199.73 266.465 199.977C266.318 200.224 266.11 200.428 265.86 200.57L225.23 223.57C224.664 223.897 224.023 224.068 223.37 224.068C222.717 224.068 222.076 223.897 221.51 223.57L194.86 207.9C194.546 207.719 194.286 207.459 194.105 207.146C193.924 206.833 193.828 206.477 193.828 206.115C193.828 205.753 193.924 205.398 194.105 205.084C194.286 204.771 194.546 204.511 194.86 204.33L235.25 181.1C235.841 180.75 236.517 180.568 237.204 180.573C237.891 180.578 238.564 180.771 239.15 181.13V181.13Z" fill="white"/>
<path id="Vector_49" opacity="0.32" d="M208.47 235.13C217.87 230.07 226.81 223.97 236.14 218.79L202.3 200.08L175.74 216C185.57 221.16 194.87 226.71 208.47 235.13Z" fill="url(#paint1_linear)"/>
<path id="Vector_50" opacity="0.32" d="M105.94 231.13C114.45 226.55 122.55 221.03 131 216.33L100.36 199.39L76.29 213.82C85.19 218.49 93.61 223.51 105.94 231.13Z" fill="url(#paint2_linear)"/>
<path id="Vector_51" d="M126.47 214.41C127.47 214.97 162.39 234.17 162.39 234.17L216.67 204.36" stroke="#E0BC94" stroke-width="2" stroke-miterlimit="10"/>
<path id="Vector_52" d="M154 156.81V203.05L118.19 223.73L89.02 206.39V163.42" fill="#008FAE"/>
<path id="Vector_53" d="M118.19 223.73V178.1L89.02 161.02V206.39L118.19 223.73Z" fill="#00A4AE"/>
<path id="Vector_54" d="M124.52 139.34L154 156.81L118.19 178.1L89.02 161.02L124.52 139.34Z" fill="#00BAE2"/>
<path id="Vector_55" d="M149.33 164.42V173.99L122.5 189.3V179.91L149.33 164.42Z" fill="#7374B7"/>
<path id="Vector_56" d="M126.537 182.096C126.72 181.492 126.558 180.908 126.176 180.793C125.795 180.678 125.337 181.074 125.155 181.679C124.972 182.283 125.133 182.866 125.515 182.982C125.897 183.097 126.354 182.701 126.537 182.096Z" fill="#F7931E"/>
<path id="Vector_57" d="M128.815 180.749C128.997 180.145 128.836 179.561 128.454 179.446C128.072 179.331 127.615 179.727 127.432 180.332C127.25 180.936 127.411 181.519 127.793 181.635C128.175 181.75 128.632 181.354 128.815 180.749Z" fill="#D9E021"/>
<path id="Vector_58" d="M130.36 180.62L146.95 171.1" stroke="#F2F2F2" stroke-width="0.25" stroke-miterlimit="10"/>
<path id="Vector_59" d="M149.96 177.83V187.41L123.13 202.71V193.33L149.96 177.83Z" fill="#7374B7"/>
<path id="Vector_60" d="M127.226 195.461C127.409 194.856 127.247 194.273 126.866 194.157C126.484 194.042 126.026 194.439 125.844 195.043C125.661 195.648 125.823 196.231 126.204 196.346C126.586 196.462 127.044 196.065 127.226 195.461Z" fill="#F7931E"/>
<path id="Vector_61" d="M129.501 194.113C129.684 193.509 129.522 192.925 129.14 192.81C128.759 192.695 128.301 193.091 128.119 193.696C127.936 194.3 128.097 194.884 128.479 194.999C128.861 195.114 129.318 194.718 129.501 194.113Z" fill="#D9E021"/>
<path id="Vector_62" d="M130.99 194.03L147.58 184.51" stroke="#F2F2F2" stroke-width="0.25" stroke-miterlimit="10"/>
<path id="Vector_63" d="M149.96 191.23V200.8L123.13 216.11V206.72L149.96 191.23Z" fill="#7374B7"/>
<path id="Vector_64" d="M127.28 208.807C127.463 208.202 127.301 207.619 126.92 207.504C126.538 207.388 126.08 207.785 125.898 208.389C125.715 208.994 125.877 209.577 126.258 209.692C126.64 209.808 127.098 209.411 127.28 208.807Z" fill="#F7931E"/>
<path id="Vector_65" d="M129.555 207.469C129.738 206.865 129.576 206.281 129.194 206.166C128.813 206.051 128.355 206.447 128.173 207.052C127.99 207.656 128.151 208.24 128.533 208.355C128.915 208.47 129.372 208.074 129.555 207.469Z" fill="#D9E021"/>
<path id="Vector_66" d="M130.99 207.43L147.58 197.91" stroke="#F2F2F2" stroke-width="0.25" stroke-miterlimit="10"/>
<path id="Vector_67" d="M89.02 176.9L118.05 194.03L154 173.16" stroke="#1B1464" stroke-width="0.25" stroke-miterlimit="10"/>
<path id="Vector_68" d="M89.02 190.3L118.05 207.43L154 186.55" stroke="#1B1464" stroke-width="0.25" stroke-miterlimit="10"/>
<path id="Vector_69" d="M193.71 55.45C193.17 54.77 185.66 50.31 185.66 50.31C184.12 48.61 181.26 49.2 177.54 52.44C177.54 52.44 177.41 48.89 173.16 48.32C168.91 47.75 167.69 49.68 167.69 49.68C167.69 49.68 166.26 42.95 157.69 45.48C149.95 47.78 151.04 55.56 151.04 55.56C151.04 55.56 146.23 54.35 142.38 59.65C140.046 63.0251 138.807 67.0365 138.83 71.14C138.83 71.14 130.74 74.07 129.71 81.43C129.622 82.0667 129.569 82.7076 129.55 83.35V83.54C129.527 85.1383 129.678 86.7344 130 88.3C130.079 88.7458 130.255 89.1686 130.516 89.5385C130.777 89.9084 131.117 90.2162 131.51 90.44L140.09 95.34C140.353 93.2057 140.049 91.0398 139.21 89.06L181.69 64.4C183.701 62.551 185.279 60.2802 186.31 57.75L189.58 56.9C189.58 56.9 194.25 56.13 193.71 55.45Z" fill="#0099BB"/>
<path id="Vector_70" d="M144.75 95.92L189.93 69.69C189.93 69.69 195.47 64.83 195.13 59.39C194.79 53.95 191.19 53.06 185.78 57.77C185.78 57.77 185.67 53.21 181.4 53.65C180.237 53.7103 179.103 54.0331 178.083 54.5943C177.063 55.1554 176.183 55.9403 175.51 56.89C175.51 56.89 176.36 48.78 167.83 51.3C165.642 51.9149 163.676 53.1457 162.167 54.8459C160.659 56.5461 159.67 58.6441 159.32 60.89C159.32 60.89 154.51 59.68 150.66 64.98C148.326 68.3551 147.087 72.3665 147.11 76.47C147.11 76.47 139 79.4 138 86.76C137 94.12 140.49 97.42 144.75 95.92Z" fill="#FF8432"/>
<path id="Vector_71" d="M172.51 224.52L168.9 231.62L182.34 230.56L172.51 224.52Z" fill="#312F89"/>
<path id="Vector_72" d="M168.9 228.84V231.62L173 230.58V227.85L168.9 228.84Z" fill="#312F89"/>
<path id="Vector_73" d="M172.51 221.74L168.9 228.84L182.34 227.78L172.51 221.74Z" fill="#4A42A4"/>
<path id="Vector_74" d="M182.34 227.78V230.56H176.21L176.52 228.24L182.34 227.78Z" fill="#312F89"/>
<path id="Vector_75" d="M186.6 217.1L183 224.2L196.43 223.13L186.6 217.1Z" fill="#312F89"/>
<path id="Vector_76" d="M183 221.42V224.2L187.09 223.15V220.43L183 221.42Z" fill="#312F89"/>
<path id="Vector_77" d="M186.6 214.32L183 221.42L196.43 220.35L186.6 214.32Z" fill="#4A42A4"/>
<path id="Vector_78" d="M196.43 220.35V223.13H190.31L190.62 220.81L196.43 220.35Z" fill="#312F89"/>
<path id="Vector_79" d="M238.06 178.86C238.06 178.86 226.94 143 227 143C227.06 143 226.65 141.41 224.67 142.31L182 167.4C182 167.4 179.93 168.24 180.33 170.17C180.73 172.1 191.2 205.28 191.2 205.28C191.418 205.591 191.729 205.826 192.088 205.95C192.447 206.074 192.836 206.081 193.2 205.97C194.5 205.57 237.03 180.86 237.03 180.86C237.426 180.723 237.754 180.439 237.945 180.066C238.137 179.694 238.178 179.262 238.06 178.86Z" fill="#053855"/>
<path id="Vector_80" d="M226.3 145.58L182.61 171.06L191.67 201.48L235.93 176.77L226.3 145.58Z" fill="#68D5FD"/>
<path id="Vector_81" d="M240.8 184.93L250.59 191.03C250.759 191.136 250.899 191.284 250.996 191.458C251.093 191.633 251.144 191.83 251.144 192.03C251.144 192.23 251.093 192.427 250.996 192.602C250.899 192.776 250.759 192.924 250.59 193.03L215.46 213.03C214.935 213.332 214.34 213.491 213.735 213.491C213.13 213.491 212.535 213.332 212.01 213.03C209.75 211.71 205.86 209.34 203.48 207.88C203.267 207.752 203.09 207.571 202.968 207.355C202.845 207.138 202.781 206.894 202.781 206.645C202.781 206.396 202.845 206.152 202.968 205.935C203.09 205.719 203.267 205.538 203.48 205.41L238.84 184.85C239.143 184.685 239.486 184.605 239.831 184.619C240.176 184.633 240.511 184.741 240.8 184.93V184.93Z" fill="#68D5FD"/>
<path id="Vector_82" d="M240.27 201.48L228 208.38C227.813 208.488 227.658 208.643 227.55 208.83C227.442 209.017 227.385 209.229 227.385 209.445C227.385 209.661 227.442 209.873 227.55 210.06C227.658 210.247 227.813 210.402 228 210.51L235.22 214.73C235.468 214.873 235.749 214.948 236.035 214.948C236.321 214.948 236.602 214.873 236.85 214.73L249.41 207.57C249.574 207.486 249.711 207.359 249.807 207.202C249.903 207.045 249.954 206.864 249.954 206.68C249.954 206.496 249.903 206.315 249.807 206.158C249.711 206.001 249.574 205.874 249.41 205.79L241.9 201.48C241.652 201.337 241.371 201.262 241.085 201.262C240.799 201.262 240.518 201.337 240.27 201.48Z" fill="#68D5FD"/>
<g id="bolt-one">
<path id="Vector_83" d="M162.06 151.25C162.14 151.41 162.54 152.93 162.86 152.61C163.18 152.29 164.86 153.01 164.86 153.01L169.55 147.01L168.93 145.06H164.7" fill="#68D5FD"/>
<path id="Vector_84" d="M184.71 125.55L185.15 124L190.08 121.31V112.91C190.08 112.75 185.31 115.71 185.31 115.71L185.09 115.24C184.822 113.955 184.331 112.726 183.64 111.61L187.11 105.2L182.7 101.85L179.4 108.46C178.2 108.181 176.95 108.202 175.76 108.52V102.17L169.45 105.67V112.31C168.21 113.497 167.082 114.796 166.08 116.19L162.27 113.76L157.97 121.94L161.37 124.65L161.08 126.02C160.641 127.471 160.29 128.947 160.03 130.44L155 133.23V141.6L159.82 138.73C160.03 140.255 160.561 141.717 161.38 143.02L157.77 149.15L162.35 152.61L165.57 146.3H169.57V152.61L175.57 148.94V142.74C176.951 141.386 178.169 139.876 179.2 138.24L182.82 140.72L187.19 132.37L183.56 129.69L183.92 128.44C184.21 127.46 184.49 126.5 184.71 125.55Z" fill="#68D5FD"/>
<path id="Vector_85" d="M196.15 116.4L190.57 113.03L189.18 115.09L191.34 119.61" fill="#68D5FD"/>
<path id="Vector_86" d="M188.85 144.21L184.72 142.5V140" fill="#68D5FD"/>
<path id="Vector_87" d="M175.58 156.1L169.51 152.61L171.05 148.02L176.51 149.63L175.58 156.1Z" fill="#68D5FD"/>
<path id="Vector_88" d="M182.71 101.84L188.77 105.34L185.44 111.97L181.8 112.03L180.96 105.34L182.71 101.84Z" fill="#68D5FD"/>
<path id="Vector_89" d="M181.527 131.771C182.477 129.355 182.109 126.949 180.705 126.398C179.302 125.846 177.395 127.358 176.446 129.774C175.496 132.19 175.864 134.595 177.268 135.147C178.671 135.698 180.578 134.186 181.527 131.771Z" fill="#68D5FD"/>
<path id="Vector_90" d="M169.43 105.69L175.5 109.19L181.8 105.69L175.74 102.19L169.43 105.69Z" fill="#68D5FD"/>
<path id="Vector_91" d="M168.32 117.27L162.26 113.77L157.96 121.95L164.03 125.44L168.32 117.27Z" fill="#68D5FD"/>
<path id="Vector_92" d="M157.72 149.14L163.79 152.64L168.36 156.1L162.3 152.61L157.72 149.14Z" fill="#68D5FD"/>
<path id="Vector_93" opacity="0.44" d="M162.06 151.25C162.14 151.41 162.54 152.93 162.86 152.61C163.18 152.29 164.86 153.01 164.86 153.01L169.55 147.01L168.93 145.06H164.7" fill="#053855"/>
<path id="Vector_94" d="M184.71 125.55L185.15 124L190.08 121.31V112.91C190.08 112.75 185.31 115.71 185.31 115.71L185.09 115.24C184.822 113.955 184.331 112.726 183.64 111.61L187.11 105.2L182.7 101.85L179.4 108.46C178.2 108.181 176.95 108.202 175.76 108.52V102.17L169.45 105.67V112.31C168.21 113.497 167.082 114.796 166.08 116.19L162.27 113.76L157.97 121.94L161.37 124.65L161.08 126.02C160.641 127.471 160.29 128.947 160.03 130.44L155 133.23V141.6L159.82 138.73C160.03 140.255 160.561 141.717 161.38 143.02L157.77 149.15L162.35 152.61L165.57 146.3H169.57V152.61L175.57 148.94V142.74C176.951 141.386 178.169 139.876 179.2 138.24L182.82 140.72L187.19 132.37L183.56 129.69L183.92 128.44C184.21 127.46 184.49 126.5 184.71 125.55Z" fill="#68D5FD"/>
<path id="Vector_95" opacity="0.44" d="M196.15 116.4L190.57 113.03L189.18 115.09L191.34 119.61" fill="#053855"/>
<path id="Vector_96" d="M188.85 144.21L184.72 142.5V140" fill="#68D5FD"/>
<path id="Vector_97" d="M175.58 156.1L169.51 152.61L171.05 148.02L176.51 149.63L175.58 156.1Z" fill="#68D5FD"/>
<path id="Vector_98" d="M182.71 101.84L188.77 105.34L185.44 111.97L181.8 112.03L180.96 105.34L182.71 101.84Z" fill="#68D5FD"/>
<path id="Vector_99" d="M181.527 131.771C182.477 129.355 182.109 126.949 180.705 126.398C179.302 125.846 177.395 127.358 176.446 129.774C175.496 132.19 175.864 134.595 177.268 135.147C178.671 135.698 180.578 134.186 181.527 131.771Z" fill="#68D5FD"/>
<path id="Vector_100" d="M168.32 117.27L162.26 113.77L157.96 121.95L164.03 125.44L168.32 117.27Z" fill="#68D5FD"/>
<path id="Vector_101" d="M157.72 149.14L163.79 152.64L168.36 156.1L162.3 152.61L157.72 149.14Z" fill="#68D5FD"/>
<path id="Vector_102" opacity="0.44" d="M184.71 125.55L185.15 124L190.08 121.31V112.91C190.08 112.75 185.31 115.71 185.31 115.71L185.09 115.24C184.822 113.955 184.331 112.726 183.64 111.61L187.11 105.2L182.7 101.85L179.4 108.46C178.2 108.181 176.95 108.202 175.76 108.52V102.17L169.45 105.67V112.31C168.21 113.497 167.082 114.796 166.08 116.19L162.27 113.76L157.97 121.94L161.37 124.65L161.08 126.02C160.641 127.471 160.29 128.947 160.03 130.44L155 133.23V141.6L159.82 138.73C160.03 140.255 160.561 141.717 161.38 143.02L157.77 149.15L162.35 152.61L165.57 146.3H169.57V152.61L175.57 148.94V142.74C176.951 141.386 178.169 139.876 179.2 138.24L182.82 140.72L187.19 132.37L183.56 129.69L183.92 128.44C184.21 127.46 184.49 126.5 184.71 125.55Z" fill="#053855"/>
<path id="Vector_103" opacity="0.1" d="M188.85 144.21L184.72 142.5V140" fill="#053855"/>
<path id="Vector_104" opacity="0.1" d="M175.58 156.1L169.51 152.61L171.05 148.02L176.51 149.63L175.58 156.1Z" fill="#053855"/>
<path id="Vector_105" opacity="0.1" d="M181.527 131.771C182.477 129.355 182.109 126.949 180.705 126.398C179.302 125.846 177.395 127.358 176.446 129.774C175.496 132.19 175.864 134.595 177.268 135.147C178.671 135.698 180.578 134.186 181.527 131.771Z" fill="#053855"/>
<path id="Vector_106" opacity="0.1" d="M168.32 117.27L162.26 113.77L157.96 121.95L164.03 125.44L168.32 117.27Z" fill="#053855"/>
<path id="Vector_107" opacity="0.1" d="M157.72 149.14L163.79 152.64L168.36 156.1L162.3 152.61L157.72 149.14Z" fill="#053855"/>
<path id="Vector_108" opacity="0.1" d="M188.85 144.21L184.72 142.5V140" fill="#053855"/>
<path id="Vector_109" opacity="0.44" d="M175.58 156.1L169.51 152.61L171.05 148.02L176.51 149.63L175.58 156.1Z" fill="#053855"/>
<path id="Vector_110" d="M190.78 129L191.22 127.45L196.15 124.76V116.36C196.15 116.2 191.38 119.16 191.38 119.16L191.16 118.69C190.892 117.405 190.401 116.176 189.71 115.06L193.18 108.65L188.77 105.3L185.47 111.91C184.27 111.631 183.02 111.652 181.83 111.97V105.62L175.52 109.12V115.76C174.28 116.947 173.152 118.246 172.15 119.64L168.34 117.21L164.04 125.39L167.44 128.1L167.15 129.47C166.711 130.921 166.36 132.397 166.1 133.89L161 136.73V145.1L165.82 142.23C166.03 143.755 166.561 145.217 167.38 146.52L163.77 152.65L168.35 156.11L171.57 149.8H175.57V156.11L181.57 152.44V146.24C182.951 144.886 184.169 143.376 185.2 141.74L188.82 144.22L193.19 135.87L189.56 133.19L189.92 131.94C190.28 131 190.55 130 190.78 129Z" fill="#68D5FD"/>
<path id="Vector_111" opacity="0.44" d="M181.527 131.771C182.477 129.355 182.109 126.949 180.705 126.398C179.302 125.846 177.395 127.358 176.446 129.774C175.496 132.19 175.864 134.595 177.268 135.147C178.671 135.698 180.578 134.186 181.527 131.771Z" fill="#053855"/>
<path id="Vector_112" opacity="0.44" d="M157.72 149.14L163.79 152.64L168.36 156.1L162.3 152.61L157.72 149.14Z" fill="#053855"/>
<path id="Vector_113" d="M169.43 105.69L175.5 109.19L181.8 105.69L175.74 102.19L169.43 105.69Z" fill="#68D5FD"/>
<path id="Vector_114" d="M154.96 133.23L161.03 136.73V145.1L154.96 141.6V133.23Z" fill="#68D5FD"/>
<path id="Vector_115" opacity="0.44" d="M154.96 133.23L161.03 136.73V145.1L154.96 141.6V133.23Z" fill="#053855"/>
</g>
<g id="bolt-two">
<path id="Vector_116" d="M192.24 100.33C192.24 100.42 192.51 101.28 192.69 101.1C192.87 100.92 193.82 101.33 193.82 101.33L196.47 98L196.12 96.9H193.73" fill="#68D5FD"/>
<path id="Vector_117" d="M205 85.8L205.25 84.92L208.04 83.4V78.66C208.04 78.57 205.35 80.24 205.35 80.24L205.22 79.98C205.068 79.2541 204.791 78.5604 204.4 77.93L206.4 74.31L203.91 72.41L202 76.15C201.324 75.9807 200.616 75.9807 199.94 76.15V72.61L196.38 74.61V78.36C195.681 79.0301 195.045 79.7632 194.48 80.55L192.33 79.18L189.9 83.8L191.82 85.33L191.66 86.11C191.41 86.9304 191.209 87.7653 191.06 88.61L188.2 90.18V94.91L191 93.25C191.119 94.1099 191.419 94.9347 191.88 95.67L189.88 99.13L192.47 101.13L194.29 97.57H196.55V101.13L199.95 99.06V95.56C200.699 94.7846 201.357 93.9257 201.91 93L203.91 94.4L206.38 89.68L204.38 88.17L204.58 87.46C204.76 86.89 204.91 86.34 205 85.8Z" fill="#68D5FD"/>
<path id="Vector_118" d="M211.5 80.64L208.35 78.73L207.57 79.9L208.79 82.45" fill="#68D5FD"/>
<path id="Vector_119" d="M207.38 96.35L205.05 95.38V93.97" fill="#68D5FD"/>
<path id="Vector_120" d="M199.88 103.07L196.46 101.09L197.32 98.5L200.41 99.41L199.88 103.07Z" fill="#68D5FD"/>
<path id="Vector_121" d="M203.91 72.41L207.34 74.39L205.46 78.13L203.4 78.17L202.92 74.39L203.91 72.41Z" fill="#68D5FD"/>
<path id="Vector_122" d="M203.235 89.3097C203.773 87.9424 203.566 86.5818 202.775 86.2708C201.983 85.9597 200.906 86.816 200.369 88.1834C199.831 89.5507 200.038 90.9113 200.829 91.2223C201.621 91.5333 202.698 90.677 203.235 89.3097Z" fill="#68D5FD"/>
<path id="Vector_123" d="M196.41 74.58L199.84 76.56L203.4 74.58L199.97 72.61L196.41 74.58Z" fill="#68D5FD"/>
<path id="Vector_124" d="M195.78 81.13L192.35 79.15L189.93 83.77L193.35 85.75L195.78 81.13Z" fill="#68D5FD"/>
<path id="Vector_125" d="M189.79 99.14L193.22 101.11L195.81 103.07L192.38 101.09L189.79 99.14Z" fill="#68D5FD"/>
<path id="Vector_126" opacity="0.44" d="M192.24 100.33C192.24 100.42 192.51 101.28 192.69 101.1C192.87 100.92 193.82 101.33 193.82 101.33L196.47 98L196.12 96.9H193.73" fill="#053855"/>
<path id="Vector_127" d="M205 85.8L205.25 84.92L208.04 83.4V78.66C208.04 78.57 205.35 80.24 205.35 80.24L205.22 79.98C205.068 79.2541 204.791 78.5604 204.4 77.93L206.4 74.31L203.91 72.41L202 76.15C201.324 75.9807 200.616 75.9807 199.94 76.15V72.61L196.38 74.61V78.36C195.681 79.0301 195.045 79.7632 194.48 80.55L192.33 79.18L189.9 83.8L191.82 85.33L191.66 86.11C191.41 86.9304 191.209 87.7653 191.06 88.61L188.2 90.18V94.91L191 93.25C191.119 94.1099 191.419 94.9347 191.88 95.67L189.88 99.13L192.47 101.13L194.29 97.57H196.55V101.13L199.95 99.06V95.56C200.699 94.7846 201.357 93.9257 201.91 93L203.91 94.4L206.38 89.68L204.38 88.17L204.58 87.46C204.76 86.89 204.91 86.34 205 85.8Z" fill="#68D5FD"/>
<path id="Vector_128" opacity="0.44" d="M211.5 80.64L208.35 78.73L207.57 79.9L208.79 82.45" fill="#053855"/>
<path id="Vector_129" d="M207.38 96.35L205.05 95.38V93.97" fill="#68D5FD"/>
<path id="Vector_130" d="M199.88 103.07L196.46 101.09L197.32 98.5L200.41 99.41L199.88 103.07Z" fill="#68D5FD"/>
<path id="Vector_131" d="M203.91 72.41L207.34 74.39L205.46 78.13L203.4 78.17L202.92 74.39L203.91 72.41Z" fill="#68D5FD"/>
<path id="Vector_132" d="M203.235 89.3097C203.773 87.9424 203.566 86.5818 202.775 86.2708C201.983 85.9597 200.906 86.816 200.369 88.1834C199.831 89.5507 200.038 90.9113 200.829 91.2223C201.621 91.5333 202.698 90.677 203.235 89.3097Z" fill="#68D5FD"/>
<path id="Vector_133" d="M195.78 81.13L192.35 79.15L189.93 83.77L193.35 85.75L195.78 81.13Z" fill="#68D5FD"/>
<path id="Vector_134" d="M189.79 99.14L193.22 101.11L195.81 103.07L192.38 101.09L189.79 99.14Z" fill="#68D5FD"/>
<path id="Vector_135" opacity="0.44" d="M205 85.8L205.25 84.92L208.04 83.4V78.66C208.04 78.57 205.35 80.24 205.35 80.24L205.22 79.98C205.068 79.2541 204.791 78.5604 204.4 77.93L206.4 74.31L203.91 72.41L202 76.15C201.324 75.9807 200.616 75.9807 199.94 76.15V72.61L196.38 74.61V78.36C195.681 79.0301 195.045 79.7632 194.48 80.55L192.33 79.18L189.9 83.8L191.82 85.33L191.66 86.11C191.41 86.9304 191.209 87.7653 191.06 88.61L188.2 90.18V94.91L191 93.25C191.119 94.1099 191.419 94.9347 191.88 95.67L189.88 99.13L192.47 101.13L194.29 97.57H196.55V101.13L199.95 99.06V95.56C200.699 94.7846 201.357 93.9257 201.91 93L203.91 94.4L206.38 89.68L204.38 88.17L204.58 87.46C204.76 86.89 204.91 86.34 205 85.8Z" fill="#053855"/>
<path id="Vector_136" opacity="0.1" d="M207.38 96.35L205.05 95.38V93.97" fill="#053855"/>
<path id="Vector_137" opacity="0.1" d="M199.88 103.07L196.46 101.09L197.32 98.5L200.41 99.41L199.88 103.07Z" fill="#053855"/>
<path id="Vector_138" opacity="0.1" d="M203.235 89.3097C203.773 87.9424 203.566 86.5818 202.775 86.2708C201.983 85.9597 200.906 86.816 200.369 88.1834C199.831 89.5507 200.038 90.9113 200.829 91.2223C201.621 91.5333 202.698 90.677 203.235 89.3097Z" fill="#053855"/>
<path id="Vector_139" opacity="0.1" d="M195.78 81.13L192.35 79.15L189.93 83.77L193.35 85.75L195.78 81.13Z" fill="#053855"/>
<path id="Vector_140" opacity="0.1" d="M189.79 99.14L193.22 101.11L195.81 103.07L192.38 101.09L189.79 99.14Z" fill="#053855"/>
<path id="Vector_141" opacity="0.1" d="M207.38 96.35L205.05 95.38V93.97" fill="#053855"/>
<path id="Vector_142" opacity="0.44" d="M199.88 103.07L196.46 101.09L197.32 98.5L200.41 99.41L199.88 103.07Z" fill="#053855"/>
<path id="Vector_143" d="M208.47 87.78L208.72 86.9L211.51 85.38V80.64C211.51 80.55 208.82 82.22 208.82 82.22L208.69 81.96C208.538 81.2341 208.261 80.5404 207.87 79.91L209.87 76.29L207.38 74.39L205.52 78.13C204.844 77.9607 204.136 77.9607 203.46 78.13V74.58L199.9 76.58V80.33C199.201 81.0001 198.565 81.7332 198 82.52L195.85 81.15L193.42 85.77L195.34 87.3L195.18 88.08C194.93 88.9004 194.729 89.7353 194.58 90.58L191.72 92.15V96.88L194.44 95.26C194.559 96.1199 194.859 96.9447 195.32 97.68L193.32 101.14L195.91 103.14L197.73 99.58H199.99V103.14L203.39 101.07V97.57C204.136 96.791 204.791 95.9286 205.34 95L207.34 96.4L209.81 91.68L207.81 90.17L208.01 89.46C208.19 88.86 208.34 88.32 208.47 87.78Z" fill="#68D5FD"/>
<path id="Vector_144" opacity="0.44" d="M203.235 89.3097C203.773 87.9424 203.566 86.5818 202.775 86.2708C201.983 85.9597 200.906 86.816 200.369 88.1834C199.831 89.5507 200.038 90.9113 200.829 91.2223C201.621 91.5333 202.698 90.677 203.235 89.3097Z" fill="#053855"/>
<path id="Vector_145" opacity="0.44" d="M189.79 99.14L193.22 101.11L195.81 103.07L192.38 101.09L189.79 99.14Z" fill="#053855"/>
<path id="Vector_146" d="M196.41 74.58L199.84 76.56L203.4 74.58L199.97 72.61L196.41 74.58Z" fill="#68D5FD"/>
<path id="Vector_147" opacity="0.44" d="M196.41 74.57L199.83 76.56L203.4 74.59L199.98 72.61L196.41 74.57Z" fill="#053855"/>
<path id="Vector_148" d="M188.23 90.15L191.66 92.12V96.85L188.23 94.87V90.15Z" fill="#68D5FD"/>
<path id="Vector_149" opacity="0.44" d="M188.23 90.15L191.66 92.12V96.85L188.23 94.87V90.15Z" fill="#053855"/>
</g>
</g>
<defs>
<linearGradient id="paint0_linear" x1="279.16" y1="180.1" x2="298.82" y2="161.38" gradientUnits="userSpaceOnUse">
<stop stop-color="#BF5A00" stop-opacity="0.03"/>
<stop offset="0.84" stop-color="#BF5A00" stop-opacity="0.84"/>
<stop offset="1" stop-color="#BF5A00"/>
</linearGradient>
<linearGradient id="paint1_linear" x1="12277.5" y1="8006.07" x2="12704.1" y2="7305.86" gradientUnits="userSpaceOnUse">
<stop stop-color="#BF5A00" stop-opacity="0.03"/>
<stop offset="0.84" stop-color="#BF5A00" stop-opacity="0.84"/>
<stop offset="1" stop-color="#BF5A00"/>
</linearGradient>
<linearGradient id="paint2_linear" x1="4877.64" y1="7471.98" x2="5410.08" y2="6660.4" gradientUnits="userSpaceOnUse">
<stop stop-color="#BF5A00" stop-opacity="0.03"/>
<stop offset="0.84" stop-color="#BF5A00" stop-opacity="0.84"/>
<stop offset="1" stop-color="#BF5A00"/>
</linearGradient>
</defs>
</svg>
