<svg width="675" height="553" viewBox="0 0 675 553" fill="none" xmlns="http://www.w3.org/2000/svg">
<g id="java(1) 1" clip-path="url(#clip0)">
<path id="Vector" opacity="0.24" d="M669.572 375.805C663.652 404.485 645.072 428.665 626.572 451.405C604.002 479.165 579.902 507.085 548.112 523.495C523.892 535.975 497.112 540.885 469.742 542.405C460.202 542.975 450.592 543.095 441.012 543.015C430.472 543.015 419.932 542.655 409.512 542.245C379.732 541.205 349.958 540.145 320.192 539.065C270.985 537.338 221.765 535.581 172.532 533.795C151.252 533.075 129.968 532.325 108.682 531.545C87.3118 530.785 65.1418 529.855 46.0718 520.155C15.9018 504.795 -0.358205 469.945 -2.6482 436.155C-4.9382 402.365 4.3518 369.045 13.6118 336.455C22.7385 304.175 31.8785 271.905 41.0318 239.645C45.5451 223.798 50.0385 207.921 54.5118 192.015C67.2318 147.235 87.9918 85.3146 118.812 49.5446C139.572 25.4846 171.072 13.6146 201.892 5.80456C239.815 -3.81628 278.768 -8.78615 317.892 -8.99544C360.022 -9.19544 404.682 -2.88544 437.312 23.7546C480.442 58.8746 481.572 108.245 499.072 156.205C515.602 201.425 571.692 199.975 607.262 224.925C625.682 237.875 638.522 257.275 648.942 277.225C664.862 307.525 676.492 342.245 669.572 375.805Z" fill="#00CCE7"/>
<path id="Vector_2" d="M508.57 400.81C509.03 382.19 505.69 363.7 504.64 345.1C467.421 372.962 441.501 413.315 431.64 458.75C430.29 465.1 429.26 471.63 430.04 478.08C431.18 487.54 439.95 504.82 451.04 506.01C460.97 507.07 474.53 488.01 480.3 480.42C497.59 457.63 507.87 429.45 508.57 400.81Z" fill="#00CCE7"/>
<path id="Vector_3" d="M507.84 401.12C508.3 382.5 504.95 364.01 503.9 345.42C466.678 373.279 440.757 413.633 430.9 459.07C429.54 465.42 428.51 471.95 429.29 478.4C430.44 487.85 439.2 505.14 450.29 506.32C460.22 507.38 473.78 488.32 479.56 480.74C496.86 457.94 507.13 429.76 507.84 401.12Z" fill="url(#paint0_linear)"/>
<path id="Vector_4" d="M528.48 516.01C532.74 502.01 534.86 487.01 543.42 475.17C554.76 459.53 576.03 451.74 583.27 433.83C586.87 424.93 586.27 414.89 584.49 405.47C584.158 403.036 583.342 400.693 582.09 398.58C579.41 394.58 574 393.04 569.29 393.97C564.58 394.9 560.49 397.9 557.2 401.41C545.7 413.65 542.28 432.01 530.2 443.68C517.59 455.88 498.15 458.3 484.57 469.4C472.03 479.69 455.18 526.9 458.74 542.69C461.88 556.58 485.33 542.75 499.87 546.1C515.2 549.69 524.74 528.11 528.48 516.01Z" fill="#00CCE7"/>
<path id="Vector_5" d="M528.48 516.01C532.74 502.01 534.86 487.01 543.42 475.17C554.76 459.53 576.03 451.74 583.27 433.83C586.87 424.93 586.27 414.89 584.49 405.47C584.158 403.036 583.342 400.693 582.09 398.58C579.41 394.58 574 393.04 569.29 393.97C564.58 394.9 560.49 397.9 557.2 401.41C545.7 413.65 542.28 432.01 530.2 443.68C517.59 455.88 498.15 458.3 484.57 469.4C472.02 479.66 452.57 527.28 456.1 543.1C459.23 556.98 485.33 542.78 499.87 546.1C515.2 549.69 524.74 528.11 528.48 516.01Z" fill="url(#paint1_linear)"/>
<path id="Vector_6" d="M518.26 435.69C519.133 446.05 519.71 456.433 519.99 466.84C520.35 479.49 520.23 492.44 515.99 504.39C508.68 525.19 489.82 540.14 469.53 548.78C466.197 533.667 462.397 518.667 458.13 503.78C455.19 493.51 452.64 486.87 458.13 477.33C464.13 466.83 473.61 457.57 483.42 450.63C486.04 448.83 518.07 433.44 518.26 435.69Z" fill="#117684"/>
<path id="Vector_7" d="M472.74 549.14L323.59 546.87L323.21 388.05C323.21 368.282 331.062 349.324 345.039 335.346C359.016 321.367 377.972 313.513 397.74 313.51H398.19C407.98 313.509 417.674 315.436 426.718 319.181C435.763 322.927 443.981 328.417 450.904 335.339C457.827 342.261 463.318 350.478 467.065 359.522C470.812 368.567 472.74 378.26 472.74 388.05V549.14Z" fill="#00CCE7"/>
<path id="Vector_8" d="M472.74 388.27V551.45C463.2 552.02 453.59 552.14 444.01 552.06C433.47 552.06 422.93 551.7 412.51 551.29C382.73 550.25 352.957 549.19 323.19 548.11V388.27C323.076 378.378 324.925 368.561 328.632 359.388C332.338 350.216 337.828 341.87 344.783 334.834C351.738 327.799 360.019 322.213 369.148 318.401C378.277 314.588 388.072 312.625 397.965 312.625C407.858 312.625 417.653 314.588 426.782 318.401C435.911 322.213 444.192 327.799 451.147 334.834C458.102 341.87 463.592 350.216 467.298 359.388C471.005 368.561 472.854 378.378 472.74 388.27V388.27Z" fill="#1C98A8"/>
<path id="Vector_9" d="M142.07 464.22C139.6 457.01 138.68 449.35 136.39 442.08C134.1 434.81 130.09 427.6 123.39 423.96C116.69 420.32 106.96 421.69 103.26 428.36C101.801 431.238 101.27 434.498 101.74 437.69C103.07 448.95 112.46 457.76 114.96 468.82C116.44 475.39 115.37 482.29 116.34 488.96C117.043 493.624 118.716 498.089 121.251 502.066C123.787 506.043 127.128 509.444 131.06 512.05C135.55 514.98 140.69 516.8 145.27 519.59C151.3 523.276 156.202 528.548 159.44 534.83C163.243 531.378 166.244 527.136 168.233 522.401C170.221 517.665 171.149 512.552 170.95 507.42C169.94 485.16 148.43 482.79 142.07 464.22Z" fill="#00CCE7"/>
<path id="Vector_10" d="M142.07 464.22C139.6 457.01 138.68 449.35 136.39 442.08C134.1 434.81 130.09 427.6 123.39 423.96C116.69 420.32 106.96 421.69 103.26 428.36C101.801 431.238 101.27 434.498 101.74 437.69C103.07 448.95 112.46 457.76 114.96 468.82C116.44 475.39 115.37 482.29 116.34 488.96C117.043 493.624 118.716 498.089 121.251 502.066C123.787 506.043 127.128 509.444 131.06 512.05C135.55 514.98 140.69 516.8 145.27 519.59C151.3 523.276 156.202 528.548 159.44 534.83C163.243 531.378 166.244 527.136 168.233 522.401C170.221 517.665 171.149 512.552 170.95 507.42C169.94 485.16 148.43 482.79 142.07 464.22Z" fill="url(#paint2_linear)"/>
<path id="Vector_11" d="M167.9 424.22C166.9 419.48 166.96 414.52 165.5 409.9C164.04 405.28 160.5 400.81 155.68 400.32C150.13 399.77 145.31 404.91 144.18 410.38C143.05 415.85 144.64 421.47 146.18 426.83L152.33 447.83C154.24 454.34 155.4 462.95 149.6 466.46C148.222 467.148 146.803 467.749 145.35 468.26C142.931 469.387 140.896 471.198 139.495 473.469C138.095 475.741 137.391 478.373 137.47 481.04C137.78 487.65 142.79 492.93 147.15 497.92C151.51 502.91 155.72 509.27 154.05 515.67C152.81 520.42 148.43 524.54 149.33 529.36C150.08 533.36 154.45 535.86 158.52 535.89C162.59 535.92 166.42 534.12 170.09 532.35L187.62 523.88C193.26 521.15 199.19 518.18 202.55 512.88C204.81 509.34 205.68 505.09 206.1 500.88C207.603 484.873 203.294 468.86 193.96 455.77C185.43 443.82 171.28 440.5 167.9 424.22Z" fill="#00CCE7"/>
<path id="Vector_12" d="M167.9 424.22C166.9 419.48 166.96 414.52 165.5 409.9C164.04 405.28 160.5 400.81 155.68 400.32C150.13 399.77 145.31 404.91 144.18 410.38C143.05 415.85 144.64 421.47 146.18 426.83L152.33 447.83C154.24 454.34 155.4 462.95 149.6 466.46C148.222 467.148 146.803 467.749 145.35 468.26C142.931 469.387 140.896 471.198 139.495 473.469C138.095 475.741 137.391 478.373 137.47 481.04C137.78 487.65 142.79 492.93 147.15 497.92C151.51 502.91 155.72 509.27 154.05 515.67C152.81 520.42 148.43 524.54 149.33 529.36C150.08 533.36 154.45 535.86 158.52 535.89C162.59 535.92 166.42 534.12 170.09 532.35L187.62 523.88C193.26 521.15 199.19 518.18 202.55 512.88C204.81 509.34 205.68 505.09 206.1 500.88C207.603 484.873 203.294 468.86 193.96 455.77C185.43 443.82 171.28 440.5 167.9 424.22Z" fill="#117785"/>
<path id="Vector_13" opacity="0.24" d="M285.82 399.26H433.02C447.203 399.26 458.7 387.763 458.7 373.58V277.71C458.7 263.527 447.203 252.03 433.02 252.03L285.82 252.03C271.637 252.03 260.14 263.527 260.14 277.71V373.58C260.14 387.763 271.637 399.26 285.82 399.26Z" fill="#117785"/>
<g id="Group" opacity="0.52">
<path id="Vector_14" opacity="0.52" d="M335.33 290.12H282.2V294.02H335.33V290.12Z" fill="white"/>
<path id="Vector_15" opacity="0.52" d="M314.63 297.66H282.2V301.32H314.63V297.66Z" fill="white"/>
<path id="Vector_16" opacity="0.52" d="M429.75 297.66H327.71V301.34H429.75V297.66Z" fill="white"/>
<path id="Vector_17" opacity="0.52" d="M343.65 305.22H299.06V309.08H343.65V305.22Z" fill="white"/>
<path id="Vector_18" opacity="0.52" d="M366.5 312.75H313.37V316.65H366.5V312.75Z" fill="white"/>
<path id="Vector_19" opacity="0.52" d="M414.5 312.75H369.97V317.08H414.5V312.75Z" fill="white"/>
<path id="Vector_20" opacity="0.52" d="M354.32 320.29H313.3V323.95H354.32V320.29Z" fill="white"/>
<path id="Vector_21" opacity="0.52" d="M442.91 320.29H358.26V324.34H442.91V320.29Z" fill="white"/>
<path id="Vector_22" opacity="0.52" d="M335.33 330.5H282.2V334.4H335.33V330.5Z" fill="white"/>
<path id="Vector_23" opacity="0.52" d="M314.63 338.03H282.2V341.69H314.63V338.03Z" fill="white"/>
<path id="Vector_24" opacity="0.52" d="M429.75 338.03H327.71V341.71H429.75V338.03Z" fill="white"/>
<path id="Vector_25" opacity="0.52" d="M343.65 345.57H299.06V349.43H343.65V345.57Z" fill="white"/>
<path id="Vector_26" opacity="0.52" d="M366.5 353.13H313.37V357.03H366.5V353.13Z" fill="white"/>
<path id="Vector_27" opacity="0.52" d="M414.5 353.13H369.97V357.46H414.5V353.13Z" fill="white"/>
<path id="Vector_28" opacity="0.52" d="M354.32 360.67H313.3V364.33H354.32V360.67Z" fill="white"/>
<path id="Vector_29" opacity="0.52" d="M442.91 360.67H358.26V364.72H442.91V360.67Z" fill="white"/>
</g>
<path id="Vector_30" d="M406.65 272.01H504.07C513.453 272.01 521.06 264.403 521.06 255.02V191.57C521.06 182.187 513.453 174.58 504.07 174.58H406.65C397.267 174.58 389.66 182.187 389.66 191.57V255.02C389.66 264.403 397.267 272.01 406.65 272.01Z" fill="white"/>
<g id="Group_2" opacity="0.52">
<path id="Vector_31" opacity="0.52" d="M439.42 199.78H404.26V202.36H439.42V199.78Z" fill="#00CCE7"/>
<path id="Vector_32" opacity="0.52" d="M425.72 204.77H404.26V207.19H425.72V204.77Z" fill="#00CCE7"/>
<path id="Vector_33" opacity="0.52" d="M501.91 204.77H434.38V207.21H501.91V204.77Z" fill="#00CCE7"/>
<path id="Vector_34" opacity="0.52" d="M444.93 209.77H415.42V212.32H444.93V209.77Z" fill="#00CCE7"/>
<path id="Vector_35" opacity="0.52" d="M460.05 214.76H424.89V217.34H460.05V214.76Z" fill="#00CCE7"/>
<path id="Vector_36" opacity="0.52" d="M491.81 214.76H462.34V217.62H491.81V214.76Z" fill="#00CCE7"/>
<path id="Vector_37" opacity="0.52" d="M451.99 219.75H424.84V222.17H451.99V219.75Z" fill="#00CCE7"/>
<path id="Vector_38" opacity="0.52" d="M510.61 219.75H454.59V222.43H510.61V219.75Z" fill="#00CCE7"/>
<path id="Vector_39" opacity="0.52" d="M439.42 226.5H404.26V229.08H439.42V226.5Z" fill="#00CCE7"/>
<path id="Vector_40" opacity="0.52" d="M425.72 231.49H404.26V233.91H425.72V231.49Z" fill="#00CCE7"/>
<path id="Vector_41" opacity="0.52" d="M501.91 231.49H434.38V233.93H501.91V231.49Z" fill="#00CCE7"/>
<path id="Vector_42" opacity="0.52" d="M444.93 236.48H415.42V239.03H444.93V236.48Z" fill="#00CCE7"/>
<path id="Vector_43" opacity="0.52" d="M460.05 241.48H424.89V244.06H460.05V241.48Z" fill="#00CCE7"/>
<path id="Vector_44" opacity="0.52" d="M491.81 241.48H462.34V244.34H491.81V241.48Z" fill="#00CCE7"/>
<path id="Vector_45" opacity="0.52" d="M451.99 246.47H424.84V248.89H451.99V246.47Z" fill="#00CCE7"/>
<path id="Vector_46" opacity="0.52" d="M510.61 246.47H454.59V249.15H510.61V246.47Z" fill="#00CCE7"/>
</g>
<g id="Group_3" opacity="0.52">
<path id="Vector_47" opacity="0.52" d="M439.42 199.78H404.26V202.36H439.42V199.78Z" fill="#00CCE7"/>
<path id="Vector_48" opacity="0.52" d="M425.72 204.77H404.26V207.19H425.72V204.77Z" fill="#00CCE7"/>
<path id="Vector_49" opacity="0.52" d="M501.91 204.77H434.38V207.21H501.91V204.77Z" fill="#00CCE7"/>
<path id="Vector_50" opacity="0.52" d="M444.93 209.77H415.42V212.32H444.93V209.77Z" fill="#00CCE7"/>
<path id="Vector_51" opacity="0.52" d="M460.05 214.76H424.89V217.34H460.05V214.76Z" fill="#00CCE7"/>
<path id="Vector_52" opacity="0.52" d="M491.81 214.76H462.34V217.62H491.81V214.76Z" fill="#00CCE7"/>
<path id="Vector_53" opacity="0.52" d="M451.99 219.75H424.84V222.17H451.99V219.75Z" fill="#00CCE7"/>
<path id="Vector_54" opacity="0.52" d="M510.61 219.75H454.59V222.43H510.61V219.75Z" fill="#00CCE7"/>
<path id="Vector_55" opacity="0.52" d="M439.42 226.5H404.26V229.08H439.42V226.5Z" fill="#00CCE7"/>
<path id="Vector_56" opacity="0.52" d="M425.72 231.49H404.26V233.91H425.72V231.49Z" fill="#00CCE7"/>
<path id="Vector_57" opacity="0.52" d="M501.91 231.49H434.38V233.93H501.91V231.49Z" fill="#00CCE7"/>
<path id="Vector_58" opacity="0.52" d="M444.93 236.48H415.42V239.03H444.93V236.48Z" fill="#00CCE7"/>
<path id="Vector_59" opacity="0.52" d="M460.05 241.48H424.89V244.06H460.05V241.48Z" fill="#00CCE7"/>
<path id="Vector_60" opacity="0.52" d="M491.81 241.48H462.34V244.34H491.81V241.48Z" fill="#00CCE7"/>
<path id="Vector_61" opacity="0.52" d="M451.99 246.47H424.84V248.89H451.99V246.47Z" fill="#00CCE7"/>
<path id="Vector_62" opacity="0.52" d="M510.61 246.47H454.59V249.15H510.61V246.47Z" fill="#00CCE7"/>
</g>
<path id="Vector_63" d="M89.89 363.33H185.77C195.004 363.33 202.49 355.844 202.49 346.61V284.16C202.49 274.926 195.004 267.44 185.77 267.44H89.89C80.6558 267.44 73.17 274.926 73.17 284.16V346.61C73.17 355.844 80.6558 363.33 89.89 363.33Z" fill="white"/>
<g id="Group_4" opacity="0.52">
<path id="Vector_64" opacity="0.52" d="M122.15 292.24H87.55V294.78H122.15V292.24Z" fill="#00CCE7"/>
<path id="Vector_65" opacity="0.52" d="M108.67 297.15H87.55V299.53H108.67V297.15Z" fill="#00CCE7"/>
<path id="Vector_66" opacity="0.52" d="M183.63 297.15H117.18V299.55H183.63V297.15Z" fill="#00CCE7"/>
<path id="Vector_67" opacity="0.52" d="M127.57 302.07H98.53V304.58H127.57V302.07Z" fill="#00CCE7"/>
<path id="Vector_68" opacity="0.52" d="M142.45 306.98H107.85V309.52H142.45V306.98Z" fill="#00CCE7"/>
<path id="Vector_69" opacity="0.52" d="M173.7 306.98H144.7V309.8H173.7V306.98Z" fill="#00CCE7"/>
<path id="Vector_70" opacity="0.52" d="M134.52 311.89H107.8V314.27H134.52V311.89Z" fill="#00CCE7"/>
<path id="Vector_71" opacity="0.52" d="M192.21 311.89H137.08V314.53H192.21V311.89Z" fill="#00CCE7"/>
<path id="Vector_72" opacity="0.52" d="M122.15 318.54H87.55V321.08H122.15V318.54Z" fill="#00CCE7"/>
<path id="Vector_73" opacity="0.52" d="M108.67 323.45H87.55V325.83H108.67V323.45Z" fill="#00CCE7"/>
<path id="Vector_74" opacity="0.52" d="M183.63 323.45H117.18V325.85H183.63V323.45Z" fill="#00CCE7"/>
<path id="Vector_75" opacity="0.52" d="M127.57 328.36H98.53V330.87H127.57V328.36Z" fill="#00CCE7"/>
<path id="Vector_76" opacity="0.52" d="M142.45 333.28H107.85V335.82H142.45V333.28Z" fill="#00CCE7"/>
<path id="Vector_77" opacity="0.52" d="M173.7 333.28H144.7V336.1H173.7V333.28Z" fill="#00CCE7"/>
<path id="Vector_78" opacity="0.52" d="M134.52 338.19H107.8V340.57H134.52V338.19Z" fill="#00CCE7"/>
<path id="Vector_79" opacity="0.52" d="M192.21 338.19H137.08V340.83H192.21V338.19Z" fill="#00CCE7"/>
</g>
<g id="Group_5" opacity="0.24">
<path id="Vector_80" opacity="0.24" d="M350.97 136.45V215.33C350.967 219.97 349.123 224.42 345.841 227.701C342.56 230.983 338.11 232.827 333.47 232.83H250.32L225.74 257.36L206.56 232.83H121.46C119.165 232.829 116.892 232.375 114.772 231.494C112.652 230.614 110.727 229.324 109.106 227.698C107.485 226.073 106.201 224.144 105.327 222.022C104.452 219.899 104.005 217.625 104.01 215.33V136.45C104.01 131.817 105.847 127.374 109.118 124.093C112.389 120.813 116.827 118.963 121.46 118.95H333.46C338.1 118.958 342.547 120.804 345.829 124.084C349.111 127.364 350.959 131.81 350.97 136.45Z" fill="#00CCE7"/>
</g>
<g id="TEXT BOX">
<path id="Vector_81" d="M333.47 108.52H121.51C111.856 108.52 104.03 116.346 104.03 126V204.91C104.03 214.564 111.856 222.39 121.51 222.39H333.47C343.124 222.39 350.95 214.564 350.95 204.91V126C350.95 116.346 343.124 108.52 333.47 108.52Z" fill="white"/>
<path id="Vector_82" d="M202.76 217.69L225.79 247.12L253.94 218.97L202.76 217.69Z" fill="white"/>
</g>
<path id="Vector_83" d="M444.01 476.82V552.06C433.47 552.06 422.93 551.7 412.51 551.29C333.53 548.523 254.53 545.707 175.51 542.84V476.84C175.513 454.655 184.327 433.38 200.013 417.693C215.7 402.007 236.975 393.193 259.16 393.19H360.4C382.577 393.195 403.843 402.009 419.522 417.692C435.202 433.375 444.01 454.643 444.01 476.82V476.82Z" fill="#4EC8D9"/>
<g id="PERSON">
<path id="Vector_84" d="M235.6 414.61C246.18 413.44 257.35 411.38 265.24 404.22C267.1 402.52 268.85 399.93 267.79 397.64C266.84 395.58 264.21 395.04 261.95 394.86C245.71 393.57 229.46 397.51 214.2 403.23C208.53 405.36 202.48 407.91 198.6 412.78C195.98 416.07 194.07 423.62 200.75 423.62C203.1 423.62 205.88 421.08 207.98 420.14C210.836 418.89 213.806 417.922 216.85 417.25C223 415.81 229.33 415.31 235.6 414.61Z" fill="url(#paint3_linear)"/>
<path id="Vector_85" d="M230.25 382.25L216.33 379.87C216.33 379.87 179.23 394.87 175.55 400.27C171.87 405.67 169.88 445.58 169.88 445.58C169.88 445.58 162.38 452.09 163.79 454.07C165.2 456.05 178.24 448.27 178.24 448.27L188.43 417.4L246.8 384.18L230.25 382.25Z" fill="#606161"/>
<path id="Vector_86" d="M230.25 382.25L216.33 379.87C216.33 379.87 179.23 394.87 175.55 400.27C171.87 405.67 169.88 445.58 169.88 445.58C169.88 445.58 162.38 452.09 163.79 454.07C165.2 456.05 178.24 448.27 178.24 448.27L188.43 417.4L246.8 384.18L230.25 382.25Z" fill="url(#paint4_linear)"/>
<path id="Vector_87" d="M215.4 358.19C213.72 359.84 211.4 360.34 209.53 361.69C207.66 363.04 205.69 363.89 204.08 365.27C203.278 365.969 202.672 366.865 202.321 367.87C201.97 368.875 201.887 369.953 202.08 371C202.111 371.276 202.234 371.533 202.43 371.73C202.605 371.82 202.799 371.866 202.995 371.866C203.191 371.866 203.385 371.82 203.56 371.73C205.439 371.002 207.188 369.976 208.74 368.69C208.833 368.6 208.945 368.533 209.069 368.495C209.192 368.457 209.323 368.448 209.45 368.47C209.74 368.58 209.81 368.96 210.01 369.2C210.103 369.295 210.214 369.371 210.337 369.423C210.46 369.474 210.592 369.501 210.725 369.501C210.858 369.501 210.99 369.474 211.113 369.423C211.236 369.371 211.347 369.295 211.44 369.2C211.807 368.82 212.084 368.362 212.25 367.86C213.46 365.01 217.59 364.81 220.44 365.06C223.92 365.36 222.74 363.73 223.21 363.29C223.68 362.85 220.48 361.12 220.74 360.4C221.82 357.375 222.421 354.2 222.52 350.99C222.606 350.132 222.479 349.267 222.15 348.47C220.38 344.95 218.92 350.4 218.51 351.76C217.81 354 217.17 356.46 215.4 358.19Z" fill="url(#paint5_linear)"/>
<path id="Vector_88" d="M218.27 345.93C218.143 346.327 218.143 346.753 218.27 347.15C218.431 347.49 218.684 347.777 219 347.98C220.173 348.841 221.496 349.478 222.9 349.86C223.319 349.998 223.761 350.049 224.2 350.01C224.994 349.839 225.703 349.392 226.2 348.75C228.808 345.78 230.401 342.057 230.75 338.12C230.94 336.36 231.56 329.92 230.09 328.64C228.44 327.2 226.39 330.53 225.28 331.92C221.961 336.031 219.57 340.81 218.27 345.93V345.93Z" fill="white"/>
<path id="Vector_89" d="M226.68 333.19C222.45 343.44 220.76 354.61 220.68 365.7C220.68 369.26 215.53 378.09 218.33 380.3C220.01 381.63 220.18 381.55 222.33 381.86C227.33 382.58 244.33 393.05 249.23 392.19C254.13 391.33 258.81 362.59 258.74 358.69C258.57 347.85 257.63 334.8 249.23 326.85C246 323.8 241.89 320.26 237.23 321.6C231.74 323.2 228.74 328.25 226.68 333.19Z" fill="white"/>
<path id="Vector_90" d="M231.32 328.1C231.32 328.9 231.32 329.89 232.01 330.25C232.308 330.383 232.641 330.418 232.96 330.35C233.614 330.184 234.226 329.885 234.759 329.472C235.293 329.059 235.735 328.541 236.06 327.95C237.294 326.055 237.821 323.785 237.55 321.54C237.259 319.55 236.287 317.723 234.8 316.37C234.633 316.182 234.426 316.033 234.194 315.934C233.962 315.836 233.712 315.79 233.46 315.8C233.188 315.873 232.938 316.01 232.73 316.2C231.885 316.833 231.146 317.596 230.54 318.46C229.94 319.39 230.3 319.92 230.54 320.93C231.164 323.266 231.427 325.684 231.32 328.1V328.1Z" fill="url(#paint6_linear)"/>
<path id="Vector_91" d="M170.88 356.08L188.17 381.43L207.44 392.59L231.28 381.63L226.02 378.29L210.09 366.96L197.21 373.21L193.25 366.42L170.88 356.08Z" fill="#00CCE7"/>
<path id="Vector_92" d="M197.21 373.22C197.21 373.22 207.09 387.39 207.15 387.89C207.21 388.39 226.35 379.89 226.35 379.89L210.09 366.89L197.21 373.22Z" fill="url(#paint7_linear)"/>
<path id="Vector_93" d="M242.68 362.86C239.43 365.99 234.87 367.32 230.45 368.24C226.683 369.025 222.873 369.586 219.04 369.92C216.41 370.16 213.68 370.31 211.32 371.51C208.96 372.71 207.08 375.32 207.64 377.9C216.467 377.433 225.293 376.9 234.12 376.3C238.81 375.98 243.57 375.63 248.01 374.1C251.12 373.03 254.24 371.16 255.47 368.1C255.914 366.867 256.157 365.57 256.19 364.26C256.33 361.002 256.26 357.739 255.98 354.49C255.985 352.292 255.546 350.115 254.69 348.09C252.39 343.49 246.62 343.69 245.81 348.69C244.94 354.04 247.37 358.35 242.68 362.86Z" fill="url(#paint8_linear)"/>
<path id="Vector_94" d="M230.25 382.25L184.19 406.79L180.6 450.09C180.6 450.09 173.43 456.71 173.43 458.64C173.43 460.57 177.29 459.47 183.09 457.26C186.245 456.139 189.217 454.559 191.91 452.57L199.91 416.17C199.91 416.17 247.62 409.55 251.21 399.62C252.266 396.918 252.407 393.945 251.61 391.156C250.814 388.367 249.124 385.916 246.8 384.18L230.25 382.25Z" fill="#606161"/>
<path id="Vector_95" d="M187.95 380.91L205.82 391.59L190.56 368.68L172.27 358.79L187.95 380.91Z" fill="url(#paint9_linear)"/>
<path id="Vector_96" d="M219.74 320.61C220.28 321.628 220.952 322.569 221.74 323.41C222.871 324.485 224.309 325.181 225.854 325.402C227.398 325.622 228.973 325.356 230.36 324.64C232.336 323.484 233.791 321.611 234.42 319.41C235.046 317.225 235.155 314.925 234.74 312.69C234.355 309.508 232.869 306.561 230.54 304.36C228.789 302.976 226.731 302.033 224.54 301.61C223.511 301.328 222.432 301.273 221.38 301.45C220.391 301.731 219.462 302.192 218.64 302.81C217.702 303.391 216.844 304.094 216.09 304.9C212.51 309.08 217.61 316.95 219.74 320.61Z" fill="url(#paint10_linear)"/>
<path id="Vector_97" d="M231.99 312.42C232.195 312.267 232.358 312.065 232.464 311.833C232.571 311.6 232.618 311.345 232.6 311.09C232.6 310.58 232.48 310.09 232.48 309.56C232.471 309.422 232.498 309.284 232.56 309.16C232.78 308.75 233.44 308.93 233.74 309.29C234.53 310.29 234.02 311.7 234.06 312.96C234.103 313.891 234.475 314.777 235.11 315.46C235.874 313.413 236.155 311.217 235.932 309.044C235.708 306.871 234.985 304.778 233.82 302.93C233.567 302.596 233.368 302.225 233.23 301.83C232.99 301.01 233.32 300.13 233.18 299.29C232.96 297.87 231.47 296.97 230.04 296.76C228.61 296.55 227.16 296.83 225.72 296.76C224.72 296.69 223.72 296.45 222.77 296.42C221.722 296.424 220.679 296.569 219.67 296.85C217.27 297.44 214.81 298.31 213.15 300.14C211.15 302.31 210.67 305.42 210.51 308.35C210.42 310.04 210.51 311.96 211.78 313.08C212.776 313.819 214.02 314.142 215.25 313.98C216.554 313.972 217.817 313.521 218.83 312.7C219.741 311.642 220.45 310.425 220.92 309.11C220.979 308.97 221.081 308.851 221.21 308.77C221.346 308.725 221.494 308.725 221.63 308.77C222.556 309.016 223.504 309.17 224.46 309.23C224.942 309.253 225.424 309.176 225.875 309.004C226.325 308.832 226.736 308.568 227.08 308.23C227.174 308.095 227.312 307.996 227.47 307.95C227.593 307.941 227.716 307.972 227.82 308.04C228.781 308.375 229.697 308.825 230.55 309.38C231.179 310.316 231.665 311.34 231.99 312.42V312.42Z" fill="#606161"/>
</g>
<g id="Group_6" opacity="0.52">
<path id="Vector_98" opacity="0.52" d="M197.223 124H135V128.566H197.223V124Z" fill="#00CCE7"/>
<path id="Vector_99" opacity="0.52" d="M172.978 132.831H135V137.113H172.978V132.831Z" fill="#00CCE7"/>
<path id="Vector_100" opacity="0.52" d="M307.811 132.831H188.303V137.149H307.811V132.831Z" fill="#00CCE7"/>
<path id="Vector_101" opacity="0.52" d="M206.974 141.679H154.75V146.192H206.974V141.679Z" fill="#00CCE7"/>
<path id="Vector_102" opacity="0.52" d="M233.731 150.51H171.509V155.076H233.731V150.51Z" fill="#00CCE7"/>
<path id="Vector_103" opacity="0.52" d="M289.937 150.51H237.784V155.571H289.937V150.51Z" fill="#00CCE7"/>
<path id="Vector_104" opacity="0.52" d="M219.468 159.341H171.42V163.624H219.468V159.341Z" fill="#00CCE7"/>
<path id="Vector_105" opacity="0.52" d="M323.207 159.341H224.069V164.084H323.207V159.341Z" fill="#00CCE7"/>
<path id="Vector_106" opacity="0.52" d="M197.223 171.286H135V175.852H197.223V171.286Z" fill="#00CCE7"/>
<path id="Vector_107" opacity="0.52" d="M172.978 180.117H135V184.4H172.978V180.117Z" fill="#00CCE7"/>
<path id="Vector_108" opacity="0.52" d="M307.811 180.117H188.303V184.435H307.811V180.117Z" fill="#00CCE7"/>
<path id="Vector_109" opacity="0.52" d="M206.974 188.948H154.75V193.461H206.974V188.948Z" fill="#00CCE7"/>
<path id="Vector_110" opacity="0.52" d="M233.731 197.796H171.509V202.362H233.731V197.796Z" fill="#00CCE7"/>
<path id="Vector_111" opacity="0.52" d="M289.937 197.796H237.784V202.858H289.937V197.796Z" fill="#00CCE7"/>
<path id="Vector_112" opacity="0.52" d="M219.468 206.627H171.42V210.91H219.468V206.627Z" fill="#00CCE7"/>
<path id="Vector_113" opacity="0.52" d="M323.207 206.627H224.069V211.37H323.207V206.627Z" fill="#00CCE7"/>
</g>
</g>
<defs>
<linearGradient id="paint0_linear" x1="497.699" y1="402.025" x2="372.185" y2="556.489" gradientUnits="userSpaceOnUse">
<stop stop-color="#010101" stop-opacity="0"/>
<stop offset="0.95" stop-color="#010101"/>
</linearGradient>
<linearGradient id="paint1_linear" x1="-3023.95" y1="60194.1" x2="30785.4" y2="75591.7" gradientUnits="userSpaceOnUse">
<stop stop-color="#010101" stop-opacity="0"/>
<stop offset="0.95" stop-color="#010101"/>
</linearGradient>
<linearGradient id="paint2_linear" x1="9001.77" y1="56858.8" x2="15749.5" y2="58311.4" gradientUnits="userSpaceOnUse">
<stop stop-color="#108383" stop-opacity="0.75"/>
<stop offset="0.95" stop-color="#010101"/>
</linearGradient>
<linearGradient id="paint3_linear" x1="17459.4" y1="13314.8" x2="17217.6" y2="11304.4" gradientUnits="userSpaceOnUse">
<stop stop-color="#010101" stop-opacity="0"/>
<stop offset="0.95" stop-color="#010101"/>
</linearGradient>
<linearGradient id="paint4_linear" x1="14212.2" y1="33501.5" x2="21131.6" y2="33501.5" gradientUnits="userSpaceOnUse">
<stop stop-color="#010101" stop-opacity="0"/>
<stop offset="0.95" stop-color="#010101"/>
</linearGradient>
<linearGradient id="paint5_linear" x1="202.01" y1="359.57" x2="223.26" y2="359.57" gradientUnits="userSpaceOnUse">
<stop stop-color="#E5C6D6"/>
<stop offset="0.42" stop-color="#EAD4D0"/>
<stop offset="1" stop-color="#F0E9CB"/>
</linearGradient>
<linearGradient id="paint6_linear" x1="1974.57" y1="5426.37" x2="2029.54" y2="5426.37" gradientUnits="userSpaceOnUse">
<stop stop-color="#E5C6D6"/>
<stop offset="0.42" stop-color="#EAD4D0"/>
<stop offset="1" stop-color="#F0E9CB"/>
</linearGradient>
<linearGradient id="paint7_linear" x1="8864.32" y1="8054.09" x2="7920.66" y2="8678.11" gradientUnits="userSpaceOnUse">
<stop stop-color="#010101" stop-opacity="0"/>
<stop offset="0.95" stop-color="#010101"/>
</linearGradient>
<linearGradient id="paint8_linear" x1="10575.1" y1="13215.7" x2="12949.6" y2="13215.7" gradientUnits="userSpaceOnUse">
<stop stop-color="#E5C6D6"/>
<stop offset="0.42" stop-color="#EAD4D0"/>
<stop offset="1" stop-color="#F0E9CB"/>
</linearGradient>
<linearGradient id="paint9_linear" x1="9845.59" y1="13205.6" x2="7838.21" y2="10924.4" gradientUnits="userSpaceOnUse">
<stop stop-color="#010101" stop-opacity="0"/>
<stop offset="0.95" stop-color="#010101"/>
</linearGradient>
<linearGradient id="paint10_linear" x1="4982.21" y1="8452.93" x2="4651.98" y2="8574.38" gradientUnits="userSpaceOnUse">
<stop stop-color="#E5C6D6"/>
<stop offset="0.42" stop-color="#EAD4D0"/>
<stop offset="1" stop-color="#F0E9CB"/>
</linearGradient>
<clipPath id="clip0">
<rect width="674.62" height="552.08" fill="white"/>
</clipPath>
</defs>
</svg>
