<svg width="359" height="394" viewBox="0 0 359 394" fill="none" xmlns="http://www.w3.org/2000/svg">
<rect width="359" height="394" fill="#E5E5E5"/>
<g id="travel_plans 1" clip-path="url(#clip0)">
<path id="Vector" opacity="0.18" d="M324.42 174.66C324.98 153.46 315.72 133.38 306.56 114.25C295.91 92.02 284.56 69.08 265.26 53.69C241.89 35.01 209.69 30.23 180.12 34.77C150.55 39.31 122.95 52.23 96.37 65.97C80.67 74.09 65.06 82.6 51.12 93.47C42.44 100.24 34.23 108.22 30.12 118.47C26.53 127.36 26.34 137.2 26.2 146.78L24.72 247.19C24.64 252.65 24.58 258.27 26.5 263.38C29.09 270.25 34.87 275.33 40.44 280.11C51.74 289.81 63.88 299.91 78.61 302.11C94.13 304.43 109.55 297.51 125.24 297.11C144.09 296.66 161.7 305.57 179.76 311.01C202.375 317.794 226.257 319.225 249.52 315.19C266.14 312.28 282.86 306.19 294.6 294.1C301.36 287.1 306.16 278.49 309.97 269.56C315.218 257.268 318.722 244.302 320.38 231.04C321.54 221.8 326.14 212.04 326.46 202.97C326.8 193.73 324.16 184.28 324.42 174.66Z" fill="#68E1FD"/>
<path id="Vector_2" d="M156.54 206.34C152.901 202.587 148.77 199.344 144.26 196.7C142.587 195.607 140.715 194.856 138.75 194.49C137.243 194.292 135.71 194.496 134.307 195.081C132.904 195.666 131.68 196.611 130.76 197.821C129.839 199.031 129.255 200.462 129.065 201.97C128.875 203.479 129.088 205.01 129.68 206.41C130.801 208.624 132.428 210.543 134.43 212.01C140.966 217.45 148.294 221.86 156.16 225.09C157.557 225.756 159.074 226.134 160.62 226.2C162.96 226.2 165.07 224.81 166.88 223.32C172.05 219.04 175.88 213.32 179.32 207.6C181.96 203.26 184.5 198.79 185.89 193.9C186.68 191.12 187.09 188.25 187.6 185.41C188.11 182.57 188.67 179.96 189.35 177.26C189.93 174.97 191.95 171.18 191.76 168.87C191.31 163.6 184.11 169.31 182.18 170.69C174.577 176.301 168.228 183.436 163.54 191.64C160.779 196.325 158.437 201.244 156.54 206.34V206.34Z" fill="#68E1FD"/>
<path id="Vector_3" d="M156.54 206.34C152.901 202.587 148.77 199.344 144.26 196.7C142.587 195.607 140.715 194.856 138.75 194.49C137.243 194.292 135.71 194.496 134.307 195.081C132.904 195.666 131.68 196.611 130.76 197.821C129.839 199.031 129.255 200.462 129.065 201.97C128.875 203.479 129.088 205.01 129.68 206.41C130.801 208.624 132.428 210.543 134.43 212.01C140.966 217.45 148.294 221.86 156.16 225.09C157.557 225.756 159.074 226.134 160.62 226.2C162.96 226.2 165.07 224.81 166.88 223.32C172.05 219.04 175.88 213.32 179.32 207.6C181.96 203.26 184.5 198.79 185.89 193.9C186.68 191.12 187.09 188.25 187.6 185.41C188.11 182.57 188.67 179.96 189.35 177.26C189.93 174.97 191.95 171.18 191.76 168.87C191.31 163.6 184.11 169.31 182.18 170.69C174.577 176.301 168.228 183.436 163.54 191.64C160.779 196.325 158.437 201.244 156.54 206.34V206.34Z" fill="url(#paint0_linear)"/>
<path id="Vector_4" d="M132.95 193.7C131.801 191.858 130.531 190.095 129.15 188.42C128.96 188.18 128.7 187.92 128.39 187.98C128.08 188.04 127.92 188.45 127.74 188.75C127.01 189.96 125.11 189.52 124.01 188.63C122.91 187.74 121.91 186.48 120.49 186.4C119.737 186.44 119.023 186.745 118.474 187.261C117.925 187.777 117.576 188.471 117.49 189.22C117.357 190.735 117.666 192.257 118.38 193.6C118.927 194.883 119.552 196.132 120.25 197.34C121.127 198.943 122.286 200.376 123.67 201.57C125.032 202.628 126.593 203.4 128.26 203.84C129.873 204.366 131.592 204.479 133.26 204.17C134.09 204.009 134.871 203.653 135.536 203.132C136.202 202.61 136.735 201.938 137.09 201.17C138.5 197.72 134.44 196.15 132.95 193.7Z" fill="#F3C091"/>
<path id="Vector_5" d="M171.83 353.95C171.792 354.503 171.867 355.057 172.05 355.58C172.6 356.84 174.31 357.18 175.61 356.75C176.258 356.54 176.854 356.194 177.358 355.736C177.861 355.277 178.261 354.716 178.53 354.09C178.96 352.89 179.104 351.606 178.95 350.34C178.867 349.121 178.703 347.908 178.46 346.71C178.422 346.276 178.294 345.854 178.084 345.471C177.874 345.089 177.586 344.755 177.24 344.49C175.65 343.59 172.67 345.55 172.07 347.09C171.31 349 171.85 351.92 171.83 353.95Z" fill="#FFCD90"/>
<path id="Vector_6" d="M177.4 353.82C176.931 354.27 176.403 354.653 175.83 354.96C175.06 355.244 174.233 355.336 173.42 355.23C172.763 355.068 172.077 355.068 171.42 355.23C171.047 355.435 170.71 355.698 170.42 356.01C169.722 356.584 168.968 357.086 168.17 357.51L164.85 359.34C163.858 359.854 162.928 360.482 162.08 361.21C161.57 361.69 161.13 362.21 160.62 362.74C160.372 362.942 160.165 363.19 160.01 363.47C159.918 363.737 159.906 364.025 159.975 364.298C160.045 364.572 160.192 364.819 160.4 365.01C160.83 365.377 161.352 365.619 161.91 365.71C162.565 365.863 163.238 365.927 163.91 365.9C164.87 365.833 165.826 365.706 166.77 365.52C168.898 365.264 171.006 364.867 173.08 364.33C175.16 363.7 177.19 362.93 179.22 362.16C179.953 361.946 180.62 361.55 181.16 361.01C181.492 360.484 181.699 359.888 181.765 359.269C181.831 358.65 181.754 358.025 181.54 357.44C181.341 356.598 181.088 355.769 180.78 354.96C180.48 354.17 180 353.3 179.17 353.15C178.884 353.124 178.596 353.156 178.323 353.244C178.05 353.331 177.797 353.473 177.58 353.66L177.4 353.82Z" fill="#2E2E3F"/>
<path id="Vector_7" d="M158.55 291.69C160.104 307.75 162.828 323.676 166.7 339.34C167.3 341.76 167.97 344.26 169.53 346.21C171.09 348.16 173.82 349.39 176.15 348.49C177.097 348.042 177.913 347.359 178.522 346.507C179.131 345.655 179.513 344.661 179.63 343.62C179.853 341.539 179.745 339.437 179.31 337.39C176.86 320.54 178.24 303.39 180.54 286.5C181.154 281.027 182.252 275.619 183.82 270.34C184.93 266.85 186.43 263.42 186.67 259.76C187.36 249.02 176.74 241.13 166.58 243.43C157.17 245.56 157.91 261.22 157.64 268.61C157.433 276.315 157.737 284.025 158.55 291.69Z" fill="#2E2E3F"/>
<path id="Vector_8" d="M216.95 362.48C217.152 362.995 217.454 363.464 217.84 363.86C218.84 364.76 220.56 364.34 221.57 363.41C222.063 362.939 222.452 362.37 222.712 361.74C222.972 361.109 223.097 360.432 223.08 359.75C222.957 358.474 222.535 357.244 221.85 356.16C221.254 355.089 220.586 354.06 219.85 353.08C219.637 352.707 219.35 352.382 219.006 352.126C218.662 351.869 218.268 351.687 217.85 351.59C216.02 351.45 214.15 354.49 214.27 356.14C214.35 358.22 216.08 360.63 216.95 362.48Z" fill="#FFCD90"/>
<path id="Vector_9" d="M223.46 360.49C223.01 360.24 222.46 360.28 221.74 360.9C221.255 361.426 220.733 361.917 220.18 362.37C219.23 362.98 217.99 362.94 216.95 363.37C216.33 363.689 215.758 364.093 215.25 364.57C213.302 366.101 211.555 367.872 210.05 369.84C209.05 371.25 206.72 373.58 208.39 375.34C209.2 376.19 210.58 376.13 211.72 375.83C212.893 375.492 214.04 375.067 215.15 374.56C217.75 373.46 220.34 372.36 222.86 371.1C223.836 370.685 224.72 370.08 225.46 369.32C226.026 368.624 226.405 367.794 226.561 366.911C226.716 366.027 226.644 365.118 226.35 364.27C226.053 363.763 225.697 363.293 225.29 362.87C224.68 362.12 224.2 360.91 223.46 360.49Z" fill="#2E2E3F"/>
<path id="Vector_10" d="M177.15 251.13C175.7 256.13 176.95 261.45 178.05 266.53C180.953 279.919 182.848 293.507 183.72 307.18C183.774 309.32 184.055 311.449 184.56 313.53C185.188 315.48 186.037 317.352 187.09 319.11C193.49 330.797 200.303 342.243 207.53 353.45C209.23 356.09 211.45 359.01 214.59 359.07C218.59 359.16 221.07 354.3 220.41 350.37C219.75 346.44 217.11 343.18 215.14 339.71C212.14 334.46 210.61 328.52 209.14 322.66C207.67 316.8 206.14 310.8 205.72 304.72C204.82 290.72 209.87 277.2 212.85 263.54C213.523 261.029 213.763 258.422 213.56 255.83C212.9 250.56 208.78 246.14 203.86 244.14C195.81 240.89 180.09 241.03 177.15 251.13Z" fill="#2E2E3F"/>
<path id="Vector_11" d="M181.19 175.02C178.14 179.97 176.32 185.56 174.53 191.08C173.15 195.33 171.77 199.59 170.76 203.95C168.92 211.88 168.31 220.08 166.06 227.9C164 235.08 160.55 242.51 162.65 249.68C163.518 252.394 164.953 254.893 166.86 257.01C170.963 261.672 176.314 265.063 182.282 266.784C188.249 268.504 194.585 268.482 200.54 266.72C202.848 266.033 205.034 264.991 207.02 263.63C212.28 259.92 215.21 253.63 216.54 247.35C217.87 241.07 217.83 234.55 218.42 228.14C219.42 217.22 222.26 206.48 222.42 195.52C222.58 184.56 219.42 172.78 210.89 165.94C200.01 157.28 187.41 164.94 181.19 175.02Z" fill="#68E1FD"/>
<path id="Vector_12" d="M184.34 138.18C183.39 141.49 182.66 144.97 183.2 148.38C183.74 151.79 185.75 155.13 188.95 156.38C190.27 156.91 191.81 157.13 192.74 158.2C193.507 159.342 193.808 160.734 193.58 162.09C193.507 163.456 193.363 164.818 193.15 166.17C192.977 166.921 192.943 167.697 193.05 168.46C193.22 169.116 193.569 169.713 194.058 170.182C194.547 170.652 195.157 170.977 195.82 171.12C197.152 171.396 198.539 171.22 199.76 170.62C203.44 168.99 205.76 165.18 206.76 161.28C207.76 157.38 207.69 153.28 208.01 149.28C208.286 147.028 208.393 144.758 208.33 142.49C208.143 140.023 207.42 137.626 206.211 135.467C205.002 133.308 203.336 131.439 201.33 129.99C198.45 127.92 192.24 125.29 188.8 127.48C187.59 128.25 187.15 129.67 186.7 130.95C185.85 133.34 185.03 135.76 184.34 138.18Z" fill="#F3C091"/>
<path id="Vector_13" d="M190.77 114.78C189.974 115 189.245 115.414 188.649 115.985C188.052 116.555 187.606 117.265 187.35 118.05C186.855 119.631 186.793 121.316 187.17 122.93C187.85 126.488 189.622 129.746 192.24 132.25C193.87 133.8 195.82 135.07 196.96 136.99C197.635 138.227 198.057 139.587 198.2 140.99C198.26 141.42 198.35 141.92 198.74 142.12C199.13 142.32 199.74 141.96 200.16 141.59C200.94 140.84 201.93 140.05 202.98 140.32C204.03 140.59 204.6 142.04 204.6 143.24C204.659 143.944 204.538 144.651 204.248 145.295C203.957 145.939 203.507 146.499 202.94 146.92C202.58 147.14 202.11 147.32 202 147.72C201.83 148.31 202.49 148.72 202.84 149.26C203.193 149.958 203.348 150.74 203.29 151.52C203.263 151.905 203.342 152.291 203.518 152.634C203.695 152.978 203.962 153.267 204.29 153.47C204.587 153.547 204.897 153.554 205.197 153.491C205.497 153.429 205.778 153.299 206.02 153.11C208.02 151.88 209.08 149.64 210.77 148.04C211.86 147.04 213.2 146.24 214.34 145.25C215.562 144.212 216.532 142.908 217.175 141.439C217.818 139.969 218.117 138.372 218.05 136.77C217.953 135.168 217.426 133.621 216.525 132.293C215.625 130.964 214.383 129.903 212.93 129.22C211.33 128.52 209.52 128.34 208.03 127.45C205.97 126.22 204.89 123.91 203.66 121.86C203.08 120.747 202.271 119.77 201.287 118.991C200.303 118.212 199.166 117.649 197.95 117.34C195.41 116.68 193.58 114.18 190.77 114.78Z" fill="#452D21"/>
<path id="Vector_14" d="M215.5 170.94C215.5 170.94 229.26 188.82 233.72 225.94C238.18 263.06 232.89 275.17 232.89 275.17C232.89 275.17 223.39 280.08 221.17 274.72C218.95 269.36 218.44 220.6 210.17 210.06C201.9 199.52 207.95 173.21 215.5 170.94Z" fill="#68E1FD"/>
<path id="Vector_15" d="M215.5 170.94C215.5 170.94 229.26 188.82 233.72 225.94C238.18 263.06 232.89 275.17 232.89 275.17C232.89 275.17 223.39 280.08 221.17 274.72C218.95 269.36 218.44 220.6 210.17 210.06C201.9 199.52 207.95 173.21 215.5 170.94Z" fill="url(#paint1_linear)"/>
<path id="Vector_16" d="M220.08 284.79C219.82 285.54 219.76 286.66 220.54 286.79C221.32 286.92 221.98 286.21 222.41 286.7C222.532 286.872 222.592 287.08 222.58 287.29C222.704 289.433 222.295 291.573 221.39 293.52C221.069 294.01 220.934 294.599 221.01 295.18C221.3 296.18 222.74 296.29 223.75 295.97C227.4 294.84 230.04 291.49 231.17 287.84C232.3 284.19 232.17 280.28 231.69 276.49C231.668 275.281 231.238 274.114 230.47 273.18C228.67 271.43 225.4 272.34 224.27 274.28C222.43 277.45 221.28 281.34 220.08 284.79Z" fill="#F3C091"/>
<path id="Vector_17" d="M48.1 115.44C70.1693 115.44 88.06 97.5493 88.06 75.48C88.06 53.4107 70.1693 35.52 48.1 35.52C26.0307 35.52 8.14001 53.4107 8.14001 75.48C8.14001 97.5493 26.0307 115.44 48.1 115.44Z" fill="#68E1FD"/>
<path id="Vector_18" d="M178.33 79.92C200.399 79.92 218.29 62.0293 218.29 39.96C218.29 17.8907 200.399 0 178.33 0C156.261 0 138.37 17.8907 138.37 39.96C138.37 62.0293 156.261 79.92 178.33 79.92Z" fill="#68E1FD"/>
<path id="Vector_19" d="M318.18 160.57C340.249 160.57 358.14 142.679 358.14 120.61C358.14 98.5407 340.249 80.65 318.18 80.65C296.111 80.65 278.22 98.5407 278.22 120.61C278.22 142.679 296.111 160.57 318.18 160.57Z" fill="#68E1FD"/>
<path id="Vector_20" d="M39.96 285.62C62.0293 285.62 79.92 267.729 79.92 245.66C79.92 223.591 62.0293 205.7 39.96 205.7C17.8907 205.7 0 223.591 0 245.66C0 267.729 17.8907 285.62 39.96 285.62Z" fill="#68E1FD"/>
<path id="Vector_21" d="M313.98 302.94C336.049 302.94 353.94 285.049 353.94 262.98C353.94 240.911 336.049 223.02 313.98 223.02C291.911 223.02 274.02 240.911 274.02 262.98C274.02 285.049 291.911 302.94 313.98 302.94Z" fill="#68E1FD"/>
</g>
<defs>
<linearGradient id="paint0_linear" x1="189.94" y1="209.4" x2="158.26" y2="186.42" gradientUnits="userSpaceOnUse">
<stop offset="0.01"/>
<stop offset="0.13" stop-opacity="0.69"/>
<stop offset="1" stop-opacity="0"/>
</linearGradient>
<linearGradient id="paint1_linear" x1="8141.24" y1="24124.3" x2="6946.5" y2="24180.7" gradientUnits="userSpaceOnUse">
<stop offset="0.01"/>
<stop offset="0.13" stop-opacity="0.69"/>
<stop offset="1" stop-opacity="0"/>
</linearGradient>
<clipPath id="clip0">
<rect width="358.14" height="393.32" fill="white"/>
</clipPath>
</defs>
</svg>
